<?xml version="1.0" encoding="utf-8"?>
<!-- Generator: Adobe Illustrator 18.0.0, SVG Export Plug-In . SVG Version: 6.00 Build 0)  -->
<!DOCTYPE svg PUBLIC "-//W3C//DTD SVG 1.1//EN" "http://www.w3.org/Graphics/SVG/1.1/DTD/svg11.dtd">
<svg version="1.1" id="Layer_1" xmlns="http://www.w3.org/2000/svg" xmlns:xlink="http://www.w3.org/1999/xlink" x="0px" y="0px"
	 viewBox="0 0 263.8 213.2" enable-background="new 0 0 263.8 213.2" xml:space="preserve">
<g>
	<polygon id="Outline_25_" fill="#E6E7E8" points="60.7,62 86.8,32 156.2,22.6 175.2,53.3 204.4,69.1 233.6,172.5 191,187.5 
		122.3,179.6 41.8,182.8 29.9,135.4 47.3,125.2 52.8,63.6 	"/>
	<polygon id="Shade1_3_" fill="#A7A9AC" points="42.2,182.7 32.4,143.6 47.2,156 82.7,151.7 99.4,181 	"/>
	<polygon id="Shade2_3_" fill="#BCBEC0" points="82.7,151.7 154.2,151.7 197.2,151.7 212.7,97.2 233.9,172.1 183,188.3 114.3,180.4 
		99.4,181 	"/>
	<circle fill="#F1F2F2" stroke="#000000" stroke-width="4" stroke-miterlimit="10" cx="86.4" cy="80.9" r="16.3"/>
	<circle fill="#F1F2F2" stroke="#000000" stroke-width="4" stroke-miterlimit="10" cx="137.7" cy="68.6" r="20.5"/>
	<g>
		<g>
			<path fill="#F1F2F2" d="M171.5,96c-2.2-6.9-1.1,2.7-33.3,12.8c-38.3,12.1-36.3,5.1-33.3,12.8c3,7.7,20.3,8.2,38.7,1.2
				C162,115.8,174,103.9,171.5,96z"/>
		</g>
		<g>
			<path fill="none" stroke="#000000" stroke-width="4" stroke-miterlimit="10" d="M171.5,96c-2.2-6.9-1.1,2.7-33.3,12.8
				c-38.3,12.1-36.3,5.1-33.3,12.8c3,7.7,20.3,8.2,38.7,1.2C162,115.8,174,103.9,171.5,96z"/>
		</g>
	</g>
	<circle stroke="#000000" stroke-width="2" stroke-miterlimit="10" cx="88.4" cy="80.9" r="5.6"/>
	<circle stroke="#000000" stroke-width="4" stroke-miterlimit="10" cx="137.7" cy="68.6" r="5.6"/>
	<polygon id="Outline_24_" fill="none" stroke="#000000" stroke-width="4" stroke-miterlimit="10" points="61,61.6 87,31.6 
		156.5,22.2 175.4,52.9 204.7,68.7 233.9,172.1 191.2,187.1 122.6,179.2 42,182.4 30.2,135 47.6,124.8 53.1,63.2 	"/>
</g>
</svg>
