<?xml version="1.0" encoding="UTF-8" standalone="no"?>
<svg width="76px" height="86px" viewBox="0 0 76 86" version="1.1" xmlns="http://www.w3.org/2000/svg" xmlns:xlink="http://www.w3.org/1999/xlink">
    <!-- Generator: Sketch 3.7.1 (28215) - http://www.bohemiancoding.com/sketch -->
    <title>tito-machine</title>
    <desc>Created with Sketch.</desc>
    <defs></defs>
    <g id="Page-1" stroke="none" stroke-width="1" fill="none" fill-rule="evenodd">
        <g id="Sliders-separate" transform="translate(-15.000000, -16.000000)">
            <g id="tito-machine" transform="translate(15.000000, 16.000000)">
                <rect id="numbers-bg" fill="#000000" x="31" y="35" width="20" height="16"></rect>
                <path d="M36.4100015,22.8300004 C36.643336,22.8300004 36.8533339,22.7750009 37.0400015,22.6650004 C37.2266691,22.5549998 37.3866675,22.401668 37.5200015,22.2050004 C37.6533355,22.0083327 37.7550012,21.7750017 37.8250015,21.5050004 C37.8950019,21.234999 37.9300015,20.940002 37.9300015,20.6200004 L37.9300015,20.6000004 C37.9300015,20.2799988 37.8933352,19.9850017 37.8200015,19.7150004 C37.7466678,19.444999 37.6416689,19.2100014 37.5050015,19.0100004 C37.3683342,18.8099994 37.2050025,18.6533343 37.0150015,18.5400004 C36.8250006,18.4266665 36.6166693,18.3700004 36.3900015,18.3700004 C36.156667,18.3700004 35.9466691,18.4249998 35.7600015,18.5350004 C35.5733339,18.6450009 35.4150022,18.7983327 35.2850015,18.9950004 C35.1550009,19.191668 35.0533352,19.424999 34.9800015,19.6950004 C34.9066678,19.9650017 34.8700015,20.2599988 34.8700015,20.5800004 L34.8700015,20.6000004 C34.8700015,20.920002 34.9066678,21.2166657 34.9800015,21.4900004 C35.0533352,21.7633351 35.1566675,21.9983327 35.2900015,22.1950004 C35.4233355,22.391668 35.5850006,22.5466665 35.7750015,22.6600004 C35.9650025,22.7733343 36.176667,22.8300004 36.4100015,22.8300004 L36.4100015,22.8300004 Z M36.3900015,24.2200004 C35.9233325,24.2200004 35.4983368,24.1283346 35.1150015,23.9450004 C34.7316663,23.7616661 34.4050029,23.5083353 34.1350015,23.1850004 C33.8650002,22.8616654 33.6566689,22.4800026 33.5100015,22.0400004 C33.3633341,21.5999982 33.2900015,21.1266696 33.2900015,20.6200004 L33.2900015,20.6000004 C33.2900015,20.0933312 33.3650008,19.6200026 33.5150015,19.1800004 C33.6650023,18.7399982 33.8766668,18.3566687 34.1500015,18.0300004 C34.4233362,17.7033321 34.7516663,17.446668 35.1350015,17.2600004 C35.5183368,17.0733328 35.9433325,16.9800004 36.4100015,16.9800004 C36.8700038,16.9800004 37.2916663,17.0716661 37.6750015,17.2550004 C38.0583368,17.4383346 38.3850002,17.6916654 38.6550015,18.0150004 C38.9250029,18.3383353 39.1350008,18.7199982 39.2850015,19.1600004 C39.4350023,19.6000026 39.5100015,20.0733312 39.5100015,20.5800004 L39.5100015,20.6000004 C39.5100015,21.1066696 39.4350023,21.5799982 39.2850015,22.0200004 C39.1350008,22.4600026 38.9233362,22.8433321 38.6500015,23.1700004 C38.3766668,23.4966687 38.0483368,23.7533328 37.6650015,23.9400004 C37.2816663,24.126668 36.8566705,24.2200004 36.3900015,24.2200004 L36.3900015,24.2200004 Z M36.0700015,29.6100004 L34.8500015,29.9100004 L34.5300015,28.6500004 L36.5400015,28.0500004 L37.5900015,28.0500004 L37.5900015,35.1000004 L36.0700015,35.1000004 L36.0700015,29.6100004 Z M33.7750015,44.8800004 L36.1050015,42.9700004 C36.3250026,42.7899995 36.5116674,42.6283344 36.6650015,42.4850004 C36.8183356,42.3416663 36.9433344,42.205001 37.0400015,42.0750004 C37.1366687,41.9449997 37.206668,41.8183343 37.2500015,41.6950004 C37.2933351,41.5716664 37.3150015,41.4366678 37.3150015,41.2900004 C37.3150015,40.9899989 37.2283357,40.7633345 37.0550015,40.6100004 C36.8816673,40.4566663 36.6550029,40.3800004 36.3750015,40.3800004 C36.1016668,40.3800004 35.8600026,40.4566663 35.6500015,40.6100004 C35.4400005,40.7633345 35.2050028,40.9999988 34.9450015,41.3200004 L33.8650015,40.4500004 C34.0383357,40.2166659 34.213334,40.0100013 34.3900015,39.8300004 C34.5666691,39.6499995 34.7566672,39.4983343 34.9600015,39.3750004 C35.1633359,39.2516664 35.3883336,39.158334 35.6350015,39.0950004 C35.8816694,39.0316667 36.1616666,39.0000004 36.4750015,39.0000004 C36.8350033,39.0000004 37.1633334,39.0516665 37.4600015,39.1550004 C37.7566697,39.2583342 38.0100005,39.4033328 38.2200015,39.5900004 C38.4300026,39.776668 38.5933343,40.0033324 38.7100015,40.2700004 C38.8266688,40.5366684 38.8850015,40.8333321 38.8850015,41.1600004 L38.8850015,41.1800004 C38.8850015,41.4733352 38.8466686,41.7349992 38.7700015,41.9650004 C38.6933345,42.1950015 38.5800023,42.411666 38.4300015,42.6150004 C38.2800008,42.8183347 38.088336,43.021666 37.8550015,43.2250004 C37.621667,43.4283347 37.3516697,43.6499992 37.0450015,43.8900004 L35.9050015,44.7700004 L38.9550015,44.7700004 L38.9550015,46.1000004 L33.7750015,46.1000004 L33.7750015,44.8800004 Z M36.4050015,57.2200004 C35.771665,57.2200004 35.2333371,57.1083348 34.7900015,56.8850004 C34.346666,56.6616659 33.975003,56.3700022 33.6750015,56.0100004 L34.7350015,55.0000004 C34.9750027,55.2733351 35.2266669,55.4816663 35.4900015,55.6250004 C35.7533362,55.7683344 36.0649997,55.8400004 36.4250015,55.8400004 C36.7183363,55.8400004 36.9566673,55.7633345 37.1400015,55.6100004 C37.3233358,55.4566663 37.4150015,55.2500017 37.4150015,54.9900004 L37.4150015,54.9700004 C37.4150015,54.6833323 37.2950027,54.4633345 37.0550015,54.3100004 C36.8150003,54.1566663 36.478337,54.0800004 36.0450015,54.0800004 L35.4050015,54.0800004 L35.1650015,53.1000004 L36.8350015,51.4200004 L34.0850015,51.4200004 L34.0850015,50.1000004 L38.8150015,50.1000004 L38.8150015,51.2600004 L37.0450015,52.9500004 C37.2850027,52.9900006 37.5166671,53.0533333 37.7400015,53.1400004 C37.963336,53.2266675 38.163334,53.3466663 38.3400015,53.5000004 C38.5166691,53.6533345 38.6583343,53.8449992 38.7650015,54.0750004 C38.8716687,54.3050015 38.9250015,54.5833321 38.9250015,54.9100004 L38.9250015,54.9300004 C38.9250015,55.2633354 38.8666688,55.5683323 38.7500015,55.8450004 C38.6333343,56.1216684 38.4666693,56.3633327 38.2500015,56.5700004 C38.0333338,56.7766681 37.7683364,56.9366665 37.4550015,57.0500004 C37.1416666,57.1633343 36.7916701,57.2200004 36.4050015,57.2200004 L36.4050015,57.2200004 Z M36.9350015,65.3400004 L36.9350015,63.1600004 L35.0750015,65.3400004 L36.9350015,65.3400004 Z M36.9350015,66.5900004 L33.5150015,66.5900004 L33.2650015,65.5000004 L37.1050015,61.0500004 L38.4050015,61.0500004 L38.4050015,65.3400004 L39.3450015,65.3400004 L39.3450015,66.5900004 L38.4050015,66.5900004 L38.4050015,68.1000004 L36.9350015,68.1000004 L36.9350015,66.5900004 Z M36.3000015,79.2200004 C35.733332,79.2200004 35.2400036,79.126668 34.8200015,78.9400004 C34.3999994,78.7533328 34.0200032,78.4966687 33.6800015,78.1700004 L34.6100015,77.0600004 C34.8766695,77.3000016 35.1433335,77.4866664 35.4100015,77.6200004 C35.6766695,77.7533344 35.9666666,77.8200004 36.2800015,77.8200004 C36.6400033,77.8200004 36.9250005,77.7366679 37.1350015,77.5700004 C37.3450026,77.4033329 37.4500015,77.1633353 37.4500015,76.8500004 L37.4500015,76.8300004 C37.4500015,76.5299989 37.3350027,76.2966679 37.1050015,76.1300004 C36.8750004,75.9633329 36.57667,75.8800004 36.2100015,75.8800004 C35.9900004,75.8800004 35.7816692,75.9050001 35.5850015,75.9550004 C35.3883339,76.0050006 35.206669,76.0666667 35.0400015,76.1400004 L34.1500015,75.5500004 L34.3500015,72.1000004 L38.6500015,72.1000004 L38.6500015,73.4500004 L35.6700015,73.4500004 L35.5900015,74.6600004 C35.7300022,74.6266669 35.8700008,74.5983338 36.0100015,74.5750004 C36.1500022,74.5516669 36.3166672,74.5400004 36.5100015,74.5400004 C36.8500032,74.5400004 37.1683334,74.5833333 37.4650015,74.6700004 C37.7616697,74.7566675 38.0216671,74.8899995 38.2450015,75.0700004 C38.468336,75.2500013 38.6433342,75.4816656 38.7700015,75.7650004 C38.8966688,76.0483351 38.9600015,76.3866651 38.9600015,76.7800004 L38.9600015,76.8000004 C38.9600015,77.1733356 38.8966688,77.5083322 38.7700015,77.8050004 C38.6433342,78.1016685 38.4650027,78.3549993 38.2350015,78.5650004 C38.0050004,78.7750014 37.7250032,78.9366665 37.3950015,79.0500004 C37.0649999,79.1633343 36.7000035,79.2200004 36.3000015,79.2200004 L36.3000015,79.2200004 Z M36.4200015,88.9000004 C36.8000034,88.9000004 37.0950005,88.8033347 37.3050015,88.6100004 C37.5150026,88.4166661 37.6200015,88.1700019 37.6200015,87.8700004 L37.6200015,87.8500004 C37.6200015,87.5499989 37.5116693,87.3050013 37.2950015,87.1150004 C37.0783338,86.9249994 36.7800034,86.8300004 36.4000015,86.8300004 C36.0199996,86.8300004 35.7250026,86.9233328 35.5150015,87.1100004 C35.3050005,87.296668 35.2000015,87.5399989 35.2000015,87.8400004 L35.2000015,87.8600004 C35.2000015,88.1600019 35.3083338,88.4083327 35.5250015,88.6050004 C35.7416693,88.801668 36.0399996,88.9000004 36.4200015,88.9000004 L36.4200015,88.9000004 Z M36.4800015,90.2200004 C36.0199992,90.2200004 35.6300031,90.1566677 35.3100015,90.0300004 C34.9899999,89.9033331 34.7066694,89.7166683 34.4600015,89.4700004 C34.2066669,89.2166658 34.0050023,88.8850024 33.8550015,88.4750004 C33.7050008,88.0649983 33.6300015,87.5133372 33.6300015,86.8200004 L33.6300015,86.8000004 C33.6300015,86.2599977 33.6916676,85.7566694 33.8150015,85.2900004 C33.9383355,84.8233314 34.1266669,84.4200021 34.3800015,84.0800004 C34.6333361,83.7399987 34.9533329,83.471668 35.3400015,83.2750004 C35.7266701,83.0783327 36.1799989,82.9800004 36.7000015,82.9800004 C36.9400027,82.9800004 37.1600005,82.9966669 37.3600015,83.0300004 C37.5600025,83.0633339 37.7466673,83.1133334 37.9200015,83.1800004 C38.0933357,83.2466674 38.2600007,83.3283332 38.4200015,83.4250004 C38.5800023,83.5216675 38.7366674,83.6299998 38.8900015,83.7500004 L38.0800015,84.9400004 C37.9666676,84.8533333 37.8566687,84.7750007 37.7500015,84.7050004 C37.6433343,84.635 37.5333354,84.5766673 37.4200015,84.5300004 C37.3066676,84.4833335 37.1866688,84.4466672 37.0600015,84.4200004 C36.9333342,84.3933336 36.7966689,84.3800004 36.6500015,84.3800004 C36.4300004,84.3800004 36.2383357,84.4216666 36.0750015,84.5050004 C35.9116674,84.5883341 35.7716688,84.7016663 35.6550015,84.8450004 C35.5383343,84.9883344 35.4466685,85.1599994 35.3800015,85.3600004 C35.3133345,85.5600014 35.2666683,85.7733326 35.2400015,86.0000004 C35.4133357,85.8866665 35.6116671,85.7833342 35.8350015,85.6900004 C36.058336,85.5966666 36.3433331,85.5500004 36.6900015,85.5500004 C37.0366699,85.5500004 37.36,85.5983332 37.6600015,85.6950004 C37.960003,85.7916675 38.2200004,85.9333328 38.4400015,86.1200004 C38.6600026,86.306668 38.8333342,86.5383323 38.9600015,86.8150004 C39.0866688,87.0916684 39.1500015,87.4133319 39.1500015,87.7800004 L39.1500015,87.8000004 C39.1500015,88.1600022 39.0816689,88.4883322 38.9450015,88.7850004 C38.8083342,89.0816685 38.6216694,89.336666 38.3850015,89.5500004 C38.1483337,89.7633348 37.8666698,89.9283331 37.5400015,90.0450004 C37.2133332,90.1616676 36.8600034,90.2200004 36.4800015,90.2200004 L36.4800015,90.2200004 Z M37.2750015,95.4300004 L33.9850015,95.4300004 L33.9850015,94.1000004 L39.0250015,94.1000004 L39.0250015,95.2600004 L35.8850015,101.1 L34.1450015,101.1 L37.2750015,95.4300004 Z M36.4000015,110.93 C36.7800034,110.93 37.0766671,110.846668 37.2900015,110.68 C37.5033359,110.513333 37.6100015,110.306668 37.6100015,110.06 L37.6100015,110.04 C37.6100015,109.766666 37.4966693,109.555001 37.2700015,109.405 C37.0433337,109.255 36.7533366,109.18 36.4000015,109.18 C36.0466664,109.18 35.7566693,109.255 35.5300015,109.405 C35.3033337,109.555001 35.1900015,109.766666 35.1900015,110.04 L35.1900015,110.06 C35.1900015,110.300002 35.2966671,110.505 35.5100015,110.675 C35.7233359,110.845001 36.0199996,110.93 36.4000015,110.93 L36.4000015,110.93 Z M36.4000015,107.96 C36.7066697,107.96 36.9500006,107.880001 37.1300015,107.72 C37.3100024,107.56 37.4000015,107.356668 37.4000015,107.11 L37.4000015,107.09 C37.4000015,106.876666 37.3133357,106.686668 37.1400015,106.52 C36.9666673,106.353333 36.7200031,106.27 36.4000015,106.27 C36.0799999,106.27 35.8333357,106.351666 35.6600015,106.515 C35.4866673,106.678335 35.4000015,106.866666 35.4000015,107.08 L35.4000015,107.1 C35.4000015,107.346668 35.4900006,107.551666 35.6700015,107.715 C35.8500024,107.878335 36.0933333,107.96 36.4000015,107.96 L36.4000015,107.96 Z M36.4000015,112.2 C36.0133329,112.2 35.6550032,112.151668 35.3250015,112.055 C34.9949999,111.958333 34.7100027,111.821668 34.4700015,111.645 C34.2300003,111.468333 34.0416689,111.256668 33.9050015,111.01 C33.7683342,110.763332 33.7000015,110.486669 33.7000015,110.18 L33.7000015,110.16 C33.7000015,109.733332 33.7950006,109.388335 33.9850015,109.125 C34.1750025,108.861666 34.4566663,108.643335 34.8300015,108.47 C34.5566668,108.303333 34.3400023,108.101668 34.1800015,107.865 C34.0200007,107.628333 33.9400015,107.320002 33.9400015,106.94 L33.9400015,106.92 C33.9400015,106.653332 33.9983343,106.403335 34.1150015,106.17 C34.2316688,105.936666 34.3983338,105.733335 34.6150015,105.56 C34.8316693,105.386666 35.09,105.250001 35.3900015,105.15 C35.690003,105.05 36.0266663,105 36.4000015,105 C36.76667,105 37.1016667,105.05 37.4050015,105.15 C37.7083364,105.250001 37.9683338,105.385 38.1850015,105.555 C38.4016693,105.725001 38.5683343,105.928333 38.6850015,106.165 C38.8016688,106.401668 38.8600015,106.653332 38.8600015,106.92 L38.8600015,106.94 C38.8600015,107.320002 38.7800023,107.628333 38.6200015,107.865 C38.4600007,108.101668 38.2433362,108.303333 37.9700015,108.47 C38.3233366,108.656668 38.6000005,108.874999 38.8000015,109.125 C39.0000025,109.375002 39.1000015,109.706665 39.1000015,110.12 L39.1000015,110.14 C39.1000015,110.466669 39.0316689,110.756666 38.8950015,111.01 C38.7583342,111.263335 38.5700027,111.478333 38.3300015,111.655 C38.0900003,111.831668 37.8050032,111.966667 37.4750015,112.06 C37.1449999,112.153334 36.7866701,112.2 36.4000015,112.2 L36.4000015,112.2 Z M36.4000015,119.43 C36.7800034,119.43 37.0750005,119.331668 37.2850015,119.135 C37.4950026,118.938333 37.6000015,118.690002 37.6000015,118.39 L37.6000015,118.37 C37.6000015,118.056665 37.4916693,117.800001 37.2750015,117.6 C37.0583338,117.399999 36.7566701,117.3 36.3700015,117.3 C35.9899996,117.3 35.6966692,117.398333 35.4900015,117.595 C35.2833338,117.791668 35.1800015,118.046665 35.1800015,118.36 L35.1800015,118.38 C35.1800015,118.693335 35.2883338,118.946666 35.5050015,119.14 C35.7216693,119.333335 36.0199996,119.43 36.4000015,119.43 L36.4000015,119.43 Z M36.1100015,123.22 C35.5966656,123.22 35.1600033,123.143334 34.8000015,122.99 C34.4399997,122.836666 34.110003,122.636668 33.8100015,122.39 L34.6200015,121.22 C34.8733361,121.426668 35.116667,121.578333 35.3500015,121.675 C35.583336,121.771668 35.85,121.82 36.1500015,121.82 C36.583337,121.82 36.9150004,121.673335 37.1450015,121.38 C37.3750027,121.086666 37.5166679,120.703336 37.5700015,120.23 C37.3966673,120.376668 37.193336,120.493333 36.9600015,120.58 C36.726667,120.666667 36.4566697,120.71 36.1500015,120.71 C35.7699996,120.71 35.4266697,120.658334 35.1200015,120.555 C34.8133333,120.451667 34.5500026,120.303335 34.3300015,120.11 C34.1100004,119.916666 33.9416688,119.680002 33.8250015,119.4 C33.7083343,119.119999 33.6500015,118.803335 33.6500015,118.45 L33.6500015,118.43 C33.6500015,118.076665 33.7150009,117.750002 33.8450015,117.45 C33.9750022,117.149999 34.156667,116.891668 34.3900015,116.675 C34.623336,116.458333 34.9049999,116.288334 35.2350015,116.165 C35.5650032,116.041666 35.9266662,115.98 36.3200015,115.98 C36.553336,115.98 36.7650006,115.995 36.9550015,116.025 C37.1450025,116.055001 37.3200007,116.1 37.4800015,116.16 C37.6400023,116.220001 37.7900008,116.298333 37.9300015,116.395 C38.0700022,116.491668 38.2066675,116.606666 38.3400015,116.74 C38.4666688,116.866668 38.580001,117.01 38.6800015,117.17 C38.780002,117.330001 38.8666678,117.516666 38.9400015,117.73 C39.0133352,117.943335 39.0700013,118.184999 39.1100015,118.455 C39.1500017,118.725002 39.1700015,119.033332 39.1700015,119.38 L39.1700015,119.4 C39.1700015,119.96667 39.1033355,120.484998 38.9700015,120.955 C38.8366675,121.425003 38.6416695,121.826665 38.3850015,122.16 C38.1283336,122.493335 37.8100034,122.753333 37.4300015,122.94 C37.0499996,123.126668 36.610004,123.22 36.1100015,123.22 L36.1100015,123.22 Z M36.4100015,132.83 C36.643336,132.83 36.8533339,132.775001 37.0400015,132.665 C37.2266691,132.555 37.3866675,132.401668 37.5200015,132.205 C37.6533355,132.008333 37.7550012,131.775002 37.8250015,131.505 C37.8950019,131.234999 37.9300015,130.940002 37.9300015,130.62 L37.9300015,130.6 C37.9300015,130.279999 37.8933352,129.985002 37.8200015,129.715 C37.7466678,129.444999 37.6416689,129.210001 37.5050015,129.01 C37.3683342,128.809999 37.2050025,128.653334 37.0150015,128.54 C36.8250006,128.426666 36.6166693,128.37 36.3900015,128.37 C36.156667,128.37 35.9466691,128.425 35.7600015,128.535 C35.5733339,128.645001 35.4150022,128.798333 35.2850015,128.995 C35.1550009,129.191668 35.0533352,129.424999 34.9800015,129.695 C34.9066678,129.965002 34.8700015,130.259999 34.8700015,130.58 L34.8700015,130.6 C34.8700015,130.920002 34.9066678,131.216666 34.9800015,131.49 C35.0533352,131.763335 35.1566675,131.998333 35.2900015,132.195 C35.4233355,132.391668 35.5850006,132.546666 35.7750015,132.66 C35.9650025,132.773334 36.176667,132.83 36.4100015,132.83 L36.4100015,132.83 Z M36.3900015,134.22 C35.9233325,134.22 35.4983368,134.128335 35.1150015,133.945 C34.7316663,133.761666 34.4050029,133.508335 34.1350015,133.185 C33.8650002,132.861665 33.6566689,132.480003 33.5100015,132.04 C33.3633341,131.599998 33.2900015,131.12667 33.2900015,130.62 L33.2900015,130.6 C33.2900015,130.093331 33.3650008,129.620003 33.5150015,129.18 C33.6650023,128.739998 33.8766668,128.356669 34.1500015,128.03 C34.4233362,127.703332 34.7516663,127.446668 35.1350015,127.26 C35.5183368,127.073333 35.9433325,126.98 36.4100015,126.98 C36.8700038,126.98 37.2916663,127.071666 37.6750015,127.255 C38.0583368,127.438335 38.3850002,127.691665 38.6550015,128.015 C38.9250029,128.338335 39.1350008,128.719998 39.2850015,129.16 C39.4350023,129.600003 39.5100015,130.073331 39.5100015,130.58 L39.5100015,130.6 C39.5100015,131.10667 39.4350023,131.579998 39.2850015,132.02 C39.1350008,132.460003 38.9233362,132.843332 38.6500015,133.17 C38.3766668,133.496669 38.0483368,133.753333 37.6650015,133.94 C37.2816663,134.126668 36.8566705,134.22 36.3900015,134.22 L36.3900015,134.22 Z" id="numbers-1" fill="#FFFFFF"></path>
                <path d="M45.6099985,22.8300004 C45.843333,22.8300004 46.0533309,22.7750009 46.2399985,22.6650004 C46.4266661,22.5549998 46.5866645,22.401668 46.7199985,22.2050004 C46.8533325,22.0083327 46.9549981,21.7750017 47.0249985,21.5050004 C47.0949988,21.234999 47.1299985,20.940002 47.1299985,20.6200004 L47.1299985,20.6000004 C47.1299985,20.2799988 47.0933322,19.9850017 47.0199985,19.7150004 C46.9466648,19.444999 46.8416658,19.2100014 46.7049985,19.0100004 C46.5683311,18.8099994 46.4049994,18.6533343 46.2149985,18.5400004 C46.0249975,18.4266665 45.8166663,18.3700004 45.5899985,18.3700004 C45.356664,18.3700004 45.1466661,18.4249998 44.9599985,18.5350004 C44.7733309,18.6450009 44.6149991,18.7983327 44.4849985,18.9950004 C44.3549978,19.191668 44.2533322,19.424999 44.1799985,19.6950004 C44.1066648,19.9650017 44.0699985,20.2599988 44.0699985,20.5800004 L44.0699985,20.6000004 C44.0699985,20.920002 44.1066648,21.2166657 44.1799985,21.4900004 C44.2533322,21.7633351 44.3566645,21.9983327 44.4899985,22.1950004 C44.6233325,22.391668 44.7849975,22.5466665 44.9749985,22.6600004 C45.1649994,22.7733343 45.376664,22.8300004 45.6099985,22.8300004 L45.6099985,22.8300004 Z M45.5899985,24.2200004 C45.1233295,24.2200004 44.6983337,24.1283346 44.3149985,23.9450004 C43.9316632,23.7616661 43.6049998,23.5083353 43.3349985,23.1850004 C43.0649971,22.8616654 42.8566659,22.4800026 42.7099985,22.0400004 C42.5633311,21.5999982 42.4899985,21.1266696 42.4899985,20.6200004 L42.4899985,20.6000004 C42.4899985,20.0933312 42.5649977,19.6200026 42.7149985,19.1800004 C42.8649992,18.7399982 43.0766638,18.3566687 43.3499985,18.0300004 C43.6233332,17.7033321 43.9516632,17.446668 44.3349985,17.2600004 C44.7183337,17.0733328 45.1433295,16.9800004 45.6099985,16.9800004 C46.0700008,16.9800004 46.4916632,17.0716661 46.8749985,17.2550004 C47.2583337,17.4383346 47.5849971,17.6916654 47.8549985,18.0150004 C48.1249998,18.3383353 48.3349977,18.7199982 48.4849985,19.1600004 C48.6349992,19.6000026 48.7099985,20.0733312 48.7099985,20.5800004 L48.7099985,20.6000004 C48.7099985,21.1066696 48.6349992,21.5799982 48.4849985,22.0200004 C48.3349977,22.4600026 48.1233332,22.8433321 47.8499985,23.1700004 C47.5766638,23.4966687 47.2483337,23.7533328 46.8649985,23.9400004 C46.4816632,24.126668 46.0566675,24.2200004 45.5899985,24.2200004 L45.5899985,24.2200004 Z M45.2699985,29.6100004 L44.0499985,29.9100004 L43.7299985,28.6500004 L45.7399985,28.0500004 L46.7899985,28.0500004 L46.7899985,35.1000004 L45.2699985,35.1000004 L45.2699985,29.6100004 Z M42.9749985,44.8800004 L45.3049985,42.9700004 C45.5249996,42.7899995 45.7116644,42.6283344 45.8649985,42.4850004 C46.0183326,42.3416663 46.1433313,42.205001 46.2399985,42.0750004 C46.3366656,41.9449997 46.4066649,41.8183343 46.4499985,41.6950004 C46.493332,41.5716664 46.5149985,41.4366678 46.5149985,41.2900004 C46.5149985,40.9899989 46.4283327,40.7633345 46.2549985,40.6100004 C46.0816643,40.4566663 45.8549999,40.3800004 45.5749985,40.3800004 C45.3016638,40.3800004 45.0599995,40.4566663 44.8499985,40.6100004 C44.6399974,40.7633345 44.4049998,40.9999988 44.1449985,41.3200004 L43.0649985,40.4500004 C43.2383327,40.2166659 43.4133309,40.0100013 43.5899985,39.8300004 C43.766666,39.6499995 43.9566641,39.4983343 44.1599985,39.3750004 C44.3633328,39.2516664 44.5883306,39.158334 44.8349985,39.0950004 C45.0816664,39.0316667 45.3616636,39.0000004 45.6749985,39.0000004 C46.0350003,39.0000004 46.3633303,39.0516665 46.6599985,39.1550004 C46.9566666,39.2583342 47.2099974,39.4033328 47.4199985,39.5900004 C47.6299995,39.776668 47.7933312,40.0033324 47.9099985,40.2700004 C48.0266657,40.5366684 48.0849985,40.8333321 48.0849985,41.1600004 L48.0849985,41.1800004 C48.0849985,41.4733352 48.0466655,41.7349992 47.9699985,41.9650004 C47.8933314,42.1950015 47.7799992,42.411666 47.6299985,42.6150004 C47.4799977,42.8183347 47.288333,43.021666 47.0549985,43.2250004 C46.821664,43.4283347 46.5516667,43.6499992 46.2449985,43.8900004 L45.1049985,44.7700004 L48.1549985,44.7700004 L48.1549985,46.1000004 L42.9749985,46.1000004 L42.9749985,44.8800004 Z M45.6049985,57.2200004 C44.971662,57.2200004 44.433334,57.1083348 43.9899985,56.8850004 C43.5466629,56.6616659 43.175,56.3700022 42.8749985,56.0100004 L43.9349985,55.0000004 C44.1749997,55.2733351 44.4266638,55.4816663 44.6899985,55.6250004 C44.9533331,55.7683344 45.2649967,55.8400004 45.6249985,55.8400004 C45.9183333,55.8400004 46.1566642,55.7633345 46.3399985,55.6100004 C46.5233327,55.4566663 46.6149985,55.2500017 46.6149985,54.9900004 L46.6149985,54.9700004 C46.6149985,54.6833323 46.4949997,54.4633345 46.2549985,54.3100004 C46.0149973,54.1566663 45.678334,54.0800004 45.2449985,54.0800004 L44.6049985,54.0800004 L44.3649985,53.1000004 L46.0349985,51.4200004 L43.2849985,51.4200004 L43.2849985,50.1000004 L48.0149985,50.1000004 L48.0149985,51.2600004 L46.2449985,52.9500004 C46.4849997,52.9900006 46.716664,53.0533333 46.9399985,53.1400004 C47.1633329,53.2266675 47.3633309,53.3466663 47.5399985,53.5000004 C47.716666,53.6533345 47.8583313,53.8449992 47.9649985,54.0750004 C48.0716657,54.3050015 48.1249985,54.5833321 48.1249985,54.9100004 L48.1249985,54.9300004 C48.1249985,55.2633354 48.0666657,55.5683323 47.9499985,55.8450004 C47.8333312,56.1216684 47.6666662,56.3633327 47.4499985,56.5700004 C47.2333307,56.7766681 46.9683334,56.9366665 46.6549985,57.0500004 C46.3416636,57.1633343 45.9916671,57.2200004 45.6049985,57.2200004 L45.6049985,57.2200004 Z M46.1349985,65.3400004 L46.1349985,63.1600004 L44.2749985,65.3400004 L46.1349985,65.3400004 Z M46.1349985,66.5900004 L42.7149985,66.5900004 L42.4649985,65.5000004 L46.3049985,61.0500004 L47.6049985,61.0500004 L47.6049985,65.3400004 L48.5449985,65.3400004 L48.5449985,66.5900004 L47.6049985,66.5900004 L47.6049985,68.1000004 L46.1349985,68.1000004 L46.1349985,66.5900004 Z M45.4999985,79.2200004 C44.933329,79.2200004 44.4400006,79.126668 44.0199985,78.9400004 C43.5999964,78.7533328 43.2200002,78.4966687 42.8799985,78.1700004 L43.8099985,77.0600004 C44.0766665,77.3000016 44.3433305,77.4866664 44.6099985,77.6200004 C44.8766665,77.7533344 45.1666636,77.8200004 45.4799985,77.8200004 C45.8400003,77.8200004 46.1249974,77.7366679 46.3349985,77.5700004 C46.5449995,77.4033329 46.6499985,77.1633353 46.6499985,76.8500004 L46.6499985,76.8300004 C46.6499985,76.5299989 46.5349996,76.2966679 46.3049985,76.1300004 C46.0749973,75.9633329 45.776667,75.8800004 45.4099985,75.8800004 C45.1899974,75.8800004 44.9816661,75.9050001 44.7849985,75.9550004 C44.5883308,76.0050006 44.406666,76.0666667 44.2399985,76.1400004 L43.3499985,75.5500004 L43.5499985,72.1000004 L47.8499985,72.1000004 L47.8499985,73.4500004 L44.8699985,73.4500004 L44.7899985,74.6600004 C44.9299992,74.6266669 45.0699978,74.5983338 45.2099985,74.5750004 C45.3499992,74.5516669 45.5166642,74.5400004 45.7099985,74.5400004 C46.0500002,74.5400004 46.3683303,74.5833333 46.6649985,74.6700004 C46.9616666,74.7566675 47.221664,74.8899995 47.4449985,75.0700004 C47.6683329,75.2500013 47.8433312,75.4816656 47.9699985,75.7650004 C48.0966658,76.0483351 48.1599985,76.3866651 48.1599985,76.7800004 L48.1599985,76.8000004 C48.1599985,77.1733356 48.0966658,77.5083322 47.9699985,77.8050004 C47.8433312,78.1016685 47.6649996,78.3549993 47.4349985,78.5650004 C47.2049973,78.7750014 46.9250001,78.9366665 46.5949985,79.0500004 C46.2649968,79.1633343 45.9000005,79.2200004 45.4999985,79.2200004 L45.4999985,79.2200004 Z M45.6199985,88.9000004 C46.0000004,88.9000004 46.2949974,88.8033347 46.5049985,88.6100004 C46.7149995,88.4166661 46.8199985,88.1700019 46.8199985,87.8700004 L46.8199985,87.8500004 C46.8199985,87.5499989 46.7116662,87.3050013 46.4949985,87.1150004 C46.2783307,86.9249994 45.9800004,86.8300004 45.5999985,86.8300004 C45.2199966,86.8300004 44.9249995,86.9233328 44.7149985,87.1100004 C44.5049974,87.296668 44.3999985,87.5399989 44.3999985,87.8400004 L44.3999985,87.8600004 C44.3999985,88.1600019 44.5083307,88.4083327 44.7249985,88.6050004 C44.9416662,88.801668 45.2399966,88.9000004 45.6199985,88.9000004 L45.6199985,88.9000004 Z M45.6799985,90.2200004 C45.2199962,90.2200004 44.8300001,90.1566677 44.5099985,90.0300004 C44.1899969,89.9033331 43.9066664,89.7166683 43.6599985,89.4700004 C43.4066639,89.2166658 43.2049992,88.8850024 43.0549985,88.4750004 C42.9049977,88.0649983 42.8299985,87.5133372 42.8299985,86.8200004 L42.8299985,86.8000004 C42.8299985,86.2599977 42.8916645,85.7566694 43.0149985,85.2900004 C43.1383324,84.8233314 43.3266639,84.4200021 43.5799985,84.0800004 C43.8333331,83.7399987 44.1533299,83.471668 44.5399985,83.2750004 C44.9266671,83.0783327 45.3799959,82.9800004 45.8999985,82.9800004 C46.1399997,82.9800004 46.3599975,82.9966669 46.5599985,83.0300004 C46.7599995,83.0633339 46.9466643,83.1133334 47.1199985,83.1800004 C47.2933327,83.2466674 47.4599977,83.3283332 47.6199985,83.4250004 C47.7799993,83.5216675 47.9366644,83.6299998 48.0899985,83.7500004 L47.2799985,84.9400004 C47.1666646,84.8533333 47.0566657,84.7750007 46.9499985,84.7050004 C46.8433313,84.635 46.7333324,84.5766673 46.6199985,84.5300004 C46.5066646,84.4833335 46.3866658,84.4466672 46.2599985,84.4200004 C46.1333312,84.3933336 45.9966659,84.3800004 45.8499985,84.3800004 C45.6299974,84.3800004 45.4383326,84.4216666 45.2749985,84.5050004 C45.1116643,84.5883341 44.9716657,84.7016663 44.8549985,84.8450004 C44.7383312,84.9883344 44.6466655,85.1599994 44.5799985,85.3600004 C44.5133315,85.5600014 44.4666653,85.7733326 44.4399985,86.0000004 C44.6133327,85.8866665 44.811664,85.7833342 45.0349985,85.6900004 C45.2583329,85.5966666 45.5433301,85.5500004 45.8899985,85.5500004 C46.2366669,85.5500004 46.559997,85.5983332 46.8599985,85.6950004 C47.16,85.7916675 47.4199974,85.9333328 47.6399985,86.1200004 C47.8599996,86.306668 48.0333312,86.5383323 48.1599985,86.8150004 C48.2866658,87.0916684 48.3499985,87.4133319 48.3499985,87.7800004 L48.3499985,87.8000004 C48.3499985,88.1600022 48.2816658,88.4883322 48.1449985,88.7850004 C48.0083311,89.0816685 47.8216663,89.336666 47.5849985,89.5500004 C47.3483306,89.7633348 47.0666668,89.9283331 46.7399985,90.0450004 C46.4133302,90.1616676 46.0600004,90.2200004 45.6799985,90.2200004 L45.6799985,90.2200004 Z M46.4749985,95.4300004 L43.1849985,95.4300004 L43.1849985,94.1000004 L48.2249985,94.1000004 L48.2249985,95.2600004 L45.0849985,101.1 L43.3449985,101.1 L46.4749985,95.4300004 Z M45.5999985,110.93 C45.9800004,110.93 46.2766641,110.846668 46.4899985,110.68 C46.7033329,110.513333 46.8099985,110.306668 46.8099985,110.06 L46.8099985,110.04 C46.8099985,109.766666 46.6966663,109.555001 46.4699985,109.405 C46.2433307,109.255 45.9533336,109.18 45.5999985,109.18 C45.2466634,109.18 44.9566663,109.255 44.7299985,109.405 C44.5033307,109.555001 44.3899985,109.766666 44.3899985,110.04 L44.3899985,110.06 C44.3899985,110.300002 44.4966641,110.505 44.7099985,110.675 C44.9233329,110.845001 45.2199966,110.93 45.5999985,110.93 L45.5999985,110.93 Z M45.5999985,107.96 C45.9066667,107.96 46.1499976,107.880001 46.3299985,107.72 C46.5099994,107.56 46.5999985,107.356668 46.5999985,107.11 L46.5999985,107.09 C46.5999985,106.876666 46.5133327,106.686668 46.3399985,106.52 C46.1666643,106.353333 45.9200001,106.27 45.5999985,106.27 C45.2799969,106.27 45.0333327,106.351666 44.8599985,106.515 C44.6866643,106.678335 44.5999985,106.866666 44.5999985,107.08 L44.5999985,107.1 C44.5999985,107.346668 44.6899976,107.551666 44.8699985,107.715 C45.0499994,107.878335 45.2933303,107.96 45.5999985,107.96 L45.5999985,107.96 Z M45.5999985,112.2 C45.2133299,112.2 44.8550001,112.151668 44.5249985,112.055 C44.1949968,111.958333 43.9099997,111.821668 43.6699985,111.645 C43.4299973,111.468333 43.2416658,111.256668 43.1049985,111.01 C42.9683311,110.763332 42.8999985,110.486669 42.8999985,110.18 L42.8999985,110.16 C42.8999985,109.733332 42.9949975,109.388335 43.1849985,109.125 C43.3749994,108.861666 43.6566633,108.643335 44.0299985,108.47 C43.7566638,108.303333 43.5399993,108.101668 43.3799985,107.865 C43.2199977,107.628333 43.1399985,107.320002 43.1399985,106.94 L43.1399985,106.92 C43.1399985,106.653332 43.1983312,106.403335 43.3149985,106.17 C43.4316657,105.936666 43.5983307,105.733335 43.8149985,105.56 C44.0316662,105.386666 44.289997,105.250001 44.5899985,105.15 C44.89,105.05 45.2266633,105 45.5999985,105 C45.966667,105 46.3016636,105.05 46.6049985,105.15 C46.9083333,105.250001 47.1683307,105.385 47.3849985,105.555 C47.6016662,105.725001 47.7683312,105.928333 47.8849985,106.165 C48.0016657,106.401668 48.0599985,106.653332 48.0599985,106.92 L48.0599985,106.94 C48.0599985,107.320002 47.9799993,107.628333 47.8199985,107.865 C47.6599977,108.101668 47.4433332,108.303333 47.1699985,108.47 C47.5233336,108.656668 47.7999975,108.874999 47.9999985,109.125 C48.1999995,109.375002 48.2999985,109.706665 48.2999985,110.12 L48.2999985,110.14 C48.2999985,110.466669 48.2316658,110.756666 48.0949985,111.01 C47.9583311,111.263335 47.7699997,111.478333 47.5299985,111.655 C47.2899973,111.831668 47.0050001,111.966667 46.6749985,112.06 C46.3449968,112.153334 45.9866671,112.2 45.5999985,112.2 L45.5999985,112.2 Z M45.5999985,119.43 C45.9800004,119.43 46.2749974,119.331668 46.4849985,119.135 C46.6949995,118.938333 46.7999985,118.690002 46.7999985,118.39 L46.7999985,118.37 C46.7999985,118.056665 46.6916662,117.800001 46.4749985,117.6 C46.2583307,117.399999 45.9566671,117.3 45.5699985,117.3 C45.1899966,117.3 44.8966662,117.398333 44.6899985,117.595 C44.4833308,117.791668 44.3799985,118.046665 44.3799985,118.36 L44.3799985,118.38 C44.3799985,118.693335 44.4883307,118.946666 44.7049985,119.14 C44.9216662,119.333335 45.2199966,119.43 45.5999985,119.43 L45.5999985,119.43 Z M45.3099985,123.22 C44.7966626,123.22 44.3600003,123.143334 43.9999985,122.99 C43.6399967,122.836666 43.31,122.636668 43.0099985,122.39 L43.8199985,121.22 C44.0733331,121.426668 44.316664,121.578333 44.5499985,121.675 C44.783333,121.771668 45.049997,121.82 45.3499985,121.82 C45.783334,121.82 46.1149973,121.673335 46.3449985,121.38 C46.5749996,121.086666 46.7166649,120.703336 46.7699985,120.23 C46.5966643,120.376668 46.393333,120.493333 46.1599985,120.58 C45.926664,120.666667 45.6566667,120.71 45.3499985,120.71 C44.9699966,120.71 44.6266667,120.658334 44.3199985,120.555 C44.0133303,120.451667 43.7499996,120.303335 43.5299985,120.11 C43.3099974,119.916666 43.1416657,119.680002 43.0249985,119.4 C42.9083312,119.119999 42.8499985,118.803335 42.8499985,118.45 L42.8499985,118.43 C42.8499985,118.076665 42.9149978,117.750002 43.0449985,117.45 C43.1749991,117.149999 43.356664,116.891668 43.5899985,116.675 C43.823333,116.458333 44.1049968,116.288334 44.4349985,116.165 C44.7650001,116.041666 45.1266632,115.98 45.5199985,115.98 C45.753333,115.98 45.9649975,115.995 46.1549985,116.025 C46.3449994,116.055001 46.5199977,116.1 46.6799985,116.16 C46.8399993,116.220001 46.9899978,116.298333 47.1299985,116.395 C47.2699992,116.491668 47.4066645,116.606666 47.5399985,116.74 C47.6666658,116.866668 47.779998,117.01 47.8799985,117.17 C47.979999,117.330001 48.0666648,117.516666 48.1399985,117.73 C48.2133322,117.943335 48.2699983,118.184999 48.3099985,118.455 C48.3499987,118.725002 48.3699985,119.033332 48.3699985,119.38 L48.3699985,119.4 C48.3699985,119.96667 48.3033325,120.484998 48.1699985,120.955 C48.0366645,121.425003 47.8416664,121.826665 47.5849985,122.16 C47.3283305,122.493335 47.0100004,122.753333 46.6299985,122.94 C46.2499966,123.126668 45.810001,123.22 45.3099985,123.22 L45.3099985,123.22 Z M45.6099985,132.83 C45.843333,132.83 46.0533309,132.775001 46.2399985,132.665 C46.4266661,132.555 46.5866645,132.401668 46.7199985,132.205 C46.8533325,132.008333 46.9549981,131.775002 47.0249985,131.505 C47.0949988,131.234999 47.1299985,130.940002 47.1299985,130.62 L47.1299985,130.6 C47.1299985,130.279999 47.0933322,129.985002 47.0199985,129.715 C46.9466648,129.444999 46.8416658,129.210001 46.7049985,129.01 C46.5683311,128.809999 46.4049994,128.653334 46.2149985,128.54 C46.0249975,128.426666 45.8166663,128.37 45.5899985,128.37 C45.356664,128.37 45.1466661,128.425 44.9599985,128.535 C44.7733309,128.645001 44.6149991,128.798333 44.4849985,128.995 C44.3549978,129.191668 44.2533322,129.424999 44.1799985,129.695 C44.1066648,129.965002 44.0699985,130.259999 44.0699985,130.58 L44.0699985,130.6 C44.0699985,130.920002 44.1066648,131.216666 44.1799985,131.49 C44.2533322,131.763335 44.3566645,131.998333 44.4899985,132.195 C44.6233325,132.391668 44.7849975,132.546666 44.9749985,132.66 C45.1649994,132.773334 45.376664,132.83 45.6099985,132.83 L45.6099985,132.83 Z M45.5899985,134.22 C45.1233295,134.22 44.6983337,134.128335 44.3149985,133.945 C43.9316632,133.761666 43.6049998,133.508335 43.3349985,133.185 C43.0649971,132.861665 42.8566659,132.480003 42.7099985,132.04 C42.5633311,131.599998 42.4899985,131.12667 42.4899985,130.62 L42.4899985,130.6 C42.4899985,130.093331 42.5649977,129.620003 42.7149985,129.18 C42.8649992,128.739998 43.0766638,128.356669 43.3499985,128.03 C43.6233332,127.703332 43.9516632,127.446668 44.3349985,127.26 C44.7183337,127.073333 45.1433295,126.98 45.6099985,126.98 C46.0700008,126.98 46.4916632,127.071666 46.8749985,127.255 C47.2583337,127.438335 47.5849971,127.691665 47.8549985,128.015 C48.1249998,128.338335 48.3349977,128.719998 48.4849985,129.16 C48.6349992,129.600003 48.7099985,130.073331 48.7099985,130.58 L48.7099985,130.6 C48.7099985,131.10667 48.6349992,131.579998 48.4849985,132.02 C48.3349977,132.460003 48.1233332,132.843332 47.8499985,133.17 C47.5766638,133.496669 47.2483337,133.753333 46.8649985,133.94 C46.4816632,134.126668 46.0566675,134.22 45.5899985,134.22 L45.5899985,134.22 Z" id="numbers-2" fill="#FFFFFF"></path>
                <rect id="numbermask1" fill="#FFFFFF" x="31" y="1" width="20" height="34"></rect>
                <rect id="numbermask2" fill="#FFFFFF" x="31" y="51" width="20" height="19"></rect>
                <g id="front">
                    <g id="crank" transform="translate(58.000000, 0.000000)" fill="#000000">
                        <path d="M3.2,6.2 C3.8,10.4 5.1,21.1 5.7,39.5 L10,39.5 C10,39.5 9.5,29.3 6.8,6.6 L3.2,6.2 L3.2,6.2 Z" id="crank-arm"></path>
                        <g id="handle">
                            <path d="M11.4,1 L1.6,2 C0.8,2 0.2,2.6 0.2,3.4 C0.2,4.2 0.8,4.8 1.6,4.8 L11.4,5.8 L11.4,1 L11.4,1 Z" id="Shape"></path>
                            <path d="M14,0.7 L13.7,0.7 L12.7,0.8 L12.7,5.8 L13.7,5.9 L14,5.9 L14,0.7 L14,0.7 Z" id="Shape"></path>
                            <path d="M15.3,0.8 L15.3,5.9 C16.5,5.6 17.3,4.6 17.3,3.4 C17.4,2.1 16.5,1 15.3,0.8 L15.3,0.8 Z" id="Shape"></path>
                        </g>
                        <path d="M1.2,24.3 L3.4,24.3 C3.4,24.3 4.5,37 4.4,40.8 L2.8,40.8 C2.8,40.8 2.1,30 1.2,24.3 L1.2,24.3 Z" id="crank-connector"></path>
                    </g>
                    <g id="body" transform="translate(0.000000, 6.000000)">
                        <path d="M56.2121285,5.2 L41.6121285,0 L18.7121285,0 L4.01212854,5.2 C4.01212854,5.2 -1.08787146,33.5 0.212128544,50.3 C0.712128544,50.4 1.31212854,50.5 1.81212854,50.5 C2.61212854,52.5 7.61212854,59.9 9.61212854,62 C11.9121285,64.3 48.7121285,64.1 50.8121285,62 C52.7121285,60.1 57.8121285,52.4 58.7121285,50.5 C59.1121285,50.4 59.6121285,50.4 60.0121285,50.3 C61.3121285,32.8 56.2121285,5.2 56.2121285,5.2 L56.2121285,5.2 Z M32.5676461,30.4134277 L50.277119,30.4134277 L50.277119,43.744581 L32.5541138,43.744581 L32.5676461,30.4134277 L32.5676461,30.4134277 Z" id="front-body" fill="#000000"></path>
                        <path d="M28.3,15.9 L28.3,14.3 L29.2,14.3 L29.2,11.6 L31,11.6 L31,14.3 L32.4,14.3 L32.4,15.9 L31,15.9 L31,19.4 C31,20.2 32.3,20.1 32.3,20.1 L32.3,21.7 C29.2,21.8 29.2,20.2 29.2,20.1 L29.2,19.4 L29.2,15.9 L28.3,15.9 L28.3,15.9 Z" id="small-t" fill="#FFFFFF"></path>
                        <path d="M33.2,18 C33.2,15.8 35,14.1 37.1,14.1 C39.2,14.1 41,15.9 41,18 C41,20.2 39.2,21.9 37.1,21.9 C35,21.9 33.2,20.2 33.2,18 L33.2,18 Z" id="o" fill="#FFFFFF"></path>
                        <polygon id="T" fill="#FFFFFF" points="20 21.7 20 13.4 17.7 13.4 17.7 11.5 24.5 11.5 24.5 13.4 22.2 13.4 22.2 21.7"></polygon>
                        <polygon id="i" fill="#FFFFFF" points="25.4 21.7 25.4 14.3 27.3 14.3 27.3 21.7"></polygon>
                        <polygon id="i-dot" fill="#FFFFFF" points="25.4 13.3 25.4 11.5 27.3 11.5 27.3 13.3"></polygon>
                        <path d="M50.5,43.3 C50.5,43.7 50.2,44 49.8,44 L32.1,44 C31.7,44 31.4,43.7 31.4,43.3 L31.4,30.1 C31.4,29.7 31.7,29.4 32.1,29.4 L49.8,29.4 C50.1,29.4 50.5,29.7 50.5,30.1 L50.5,43.3 L50.5,43.3 Z M48.6,30.5 L42.3,30.5 C41.8,30.5 41.5,30.9 41.5,31.3 L41.5,42.2 C41.5,42.7 41.9,43 42.3,43 L48.6,43 C49.1,43 49.4,42.6 49.4,42.2 L49.4,31.3 C49.4,30.9 49,30.5 48.6,30.5 L48.6,30.5 Z M39.5,30.4 L33.2,30.4 C32.7,30.4 32.4,30.8 32.4,31.2 L32.4,42.1 C32.4,42.6 32.8,42.9 33.2,42.9 L39.5,42.9 C40,42.9 40.3,42.5 40.3,42.1 L40.3,31.2 C40.3,30.8 39.9,30.4 39.5,30.4 L39.5,30.4 Z" id="numbers-box" fill="#FFFFFF"></path>
                        <path d="M37.3,15.8 C36.1,15.8 35.1,16.8 35.1,18 C35.1,19.2 36.1,20.2 37.2,20.2 C37.7,20.2 38.2,19.9 38.2,19.2 C38.2,18.5 37.6,18.3 37.3,18.3 C37,18.3 36.8,18.5 36.8,18.5 L36.8,17 C37.1,16.8 37.2,16.8 37.6,16.8 C38,16.8 39.3,17 39.5,18.4 L39.5,18.1 C39.5,16.8 38.5,15.8 37.3,15.8 L37.3,15.8 Z" id="tito-curl" fill="#000000"></path>
                        <g id="sliders" transform="translate(6.000000, 27.000000)" fill="#FFFFFF">
                            <g id="slider4" transform="translate(16.000000, 0.000000)">
                                <path d="M1.5,1.6 C1.5,1.2 1.8,0.9 2.2,0.9 C2.6,0.9 2.9,1.2 2.9,1.6 L2.9,17.8 C2.9,18.2 2.6,18.5 2.2,18.5 C1.8,18.5 1.5,18.2 1.5,17.8 L1.5,1.6 Z"></path>
                                <path d="M2.22000122,5 C3.04842835,5 3.72000122,4.32842712 3.72000122,3.5 C3.72000122,2.67157288 3.04842835,2 2.22000122,2 C1.3915741,2 0.720001221,2.67157288 0.720001221,3.5 C0.720001221,4.32842712 1.3915741,5 2.22000122,5 Z" id="oval4"></path>
                            </g>
                            <g id="slider3" transform="translate(11.000000, 0.000000)">
                                <path d="M1.2,1.6 C1.2,1.2 1.5,0.9 1.9,0.9 C2.3,0.9 2.6,1.2 2.6,1.6 L2.6,17.8 C2.6,18.2 2.3,18.5 1.9,18.5 C1.5,18.5 1.2,18.2 1.2,17.8 L1.2,1.6 Z"></path>
                                <path d="M1.91999817,5 C2.74842529,5 3.41999817,4.32842712 3.41999817,3.5 C3.41999817,2.67157288 2.74842529,2 1.91999817,2 C1.09157104,2 0.419998169,2.67157288 0.419998169,3.5 C0.419998169,4.32842712 1.09157104,5 1.91999817,5 Z" id="oval3"></path>
                            </g>
                            <g id="slider2" transform="translate(5.000000, 0.000000)">
                                <path d="M1.5,1.6 C1.5,1.2 1.8,0.9 2.2,0.9 C2.6,0.9 2.9,1.2 2.9,1.6 L2.9,17.8 C2.9,18.2 2.6,18.5 2.2,18.5 C1.8,18.5 1.5,18.2 1.5,17.8 L1.5,1.6 Z"></path>
                                <path d="M2.21999931,5 C3.04842644,5 3.71999931,4.32842712 3.71999931,3.5 C3.71999931,2.67157288 3.04842644,2 2.21999931,2 C1.39157219,2 0.719999313,2.67157288 0.719999313,3.5 C0.719999313,4.32842712 1.39157219,5 2.21999931,5 Z" id="oval2"></path>
                            </g>
                            <g id="slider1">
                                <path d="M1.6,18.5 C1.2,18.5 0.9,18.2 0.9,17.8 L0.9,1.6 C0.9,1.2 1.2,0.9 1.6,0.9 C2,0.9 2.3,1.2 2.3,1.6 L2.3,17.8 C2.3,18.2 2,18.5 1.6,18.5 Z"></path>
                                <path d="M1.62000084,5 C2.44842796,5 3.12000084,4.32842712 3.12000084,3.5 C3.12000084,2.67157288 2.44842796,2 1.62000084,2 C0.791573715,2 0.120000839,2.67157288 0.120000839,3.5 C0.120000839,4.32842712 0.791573715,5 1.62000084,5 Z" id="oval1"></path>
                            </g>
                        </g>
                        <polygon id="bottom-wedge" fill="#FFFFFF" points="47.5 60.1 12.3 60.1 8.5 52.6 51.3 52.6"></polygon>
                        <path d="M46,55.2 C45.4,55.2 44.9,55.7 44.9,56.3 C44.9,56.9 45.4,57.4 46,57.4 C46.6,57.4 47.1,56.9 47.1,56.3 C47.1,55.7 46.6,55.2 46,55.2 L46,55.2 Z" id="wedge-dot" fill="#000000"></path>
                        <polygon id="wedge-rectangle" fill="#000000" points="17.0349121 55.6229248 43.2018161 55.6229248 43.2018161 57.1362794 17.0435604 57.1362794"></polygon>
                        <polygon id="top-wedge" fill="#FFFFFF" points="20 2.1 39.5 2.1 42.3 3.4 17.2 3.4"></polygon>
                    </g>
                </g>
            </g>
        </g>
    </g>
</svg>