<?xml version="1.0" encoding="UTF-8" standalone="no"?>
<svg width="77px" height="70px" viewBox="0 0 77 70" version="1.1" xmlns="http://www.w3.org/2000/svg" xmlns:xlink="http://www.w3.org/1999/xlink">
    <!-- Generator: Sketch 3.6.1 (26313) - http://www.bohemiancoding.com/sketch -->
    <title>machine</title>
    <desc>Created with Sketch.</desc>
    <defs></defs>
    <g id="Page-1" stroke="none" stroke-width="1" fill="none" fill-rule="evenodd">
        <g id="tito-machine">
            <g id="front">
                <g id="crank" transform="translate(59.000000, 0.000000)" fill="#000000">
                    <path d="M3.2,6.2 C3.8,10.4 5.1,21.1 5.7,39.5 L10,39.5 C10,39.5 9.5,29.3 6.8,6.6 L3.2,6.2 L3.2,6.2 Z" id="crank-arm"></path>
                    <g id="handle">
                        <path d="M11.4,1 L1.6,2 C0.8,2 0.2,2.6 0.2,3.4 C0.2,4.2 0.8,4.8 1.6,4.8 L11.4,5.8 L11.4,1 L11.4,1 Z" id="Shape"></path>
                        <path d="M14,0.7 L13.7,0.7 L12.7,0.8 L12.7,5.8 L13.7,5.9 L14,5.9 L14,0.7 L14,0.7 Z" id="Shape"></path>
                        <path d="M15.3,0.8 L15.3,5.9 C16.5,5.6 17.3,4.6 17.3,3.4 C17.4,2.1 16.5,1 15.3,0.8 L15.3,0.8 Z" id="Shape"></path>
                    </g>
                    <path d="M1.2,24.3 L3.4,24.3 C3.4,24.3 4.5,37 4.4,40.8 L2.8,40.8 C2.8,40.8 2.1,30 1.2,24.3 L1.2,24.3 Z" id="crank-connector"></path>
                </g>
                <g id="body" transform="translate(0.000000, 5.000000)">
                    <path d="M56.8,5.8 L42.2,0.6 L19.3,0.6 L4.6,5.8 C4.6,5.8 -0.5,34.1 0.8,50.9 C1.3,51 1.9,51.1 2.4,51.1 C3.2,53.1 8.2,60.5 10.2,62.6 C12.5,64.9 49.3,64.7 51.4,62.6 C53.3,60.7 58.4,53 59.3,51.1 C59.7,51 60.2,51 60.6,50.9 C61.9,33.4 56.8,5.8 56.8,5.8 L56.8,5.8 Z" id="front-body" fill="#000000"></path>
                    <path d="M29.3,16.9 L29.3,15.3 L30.2,15.3 L30.2,12.6 L32,12.6 L32,15.3 L33.4,15.3 L33.4,16.9 L32,16.9 L32,20.4 C32,21.2 33.3,21.1 33.3,21.1 L33.3,22.7 C30.2,22.8 30.2,21.2 30.2,21.1 L30.2,20.4 L30.2,16.9 L29.3,16.9 L29.3,16.9 Z" id="small-t" fill="#FFFFFF"></path>
                    <path d="M34.2,19 C34.2,16.8 36,15.1 38.1,15.1 C40.2,15.1 42,16.9 42,19 C42,21.2 40.2,22.9 38.1,22.9 C36,22.9 34.2,21.2 34.2,19 Z M38.3,16.8 C37.1,16.8 36.1,17.8 36.1,19 C36.1,20.2 37.1,21.2 38.2,21.2 C38.7,21.2 39.2,20.9 39.2,20.2 C39.2,19.5 38.6,19.3 38.3,19.3 C38,19.3 37.8,19.5 37.8,19.5 L37.8,18 C38.1,17.8 38.2,17.8 38.6,17.8 C39,17.8 40.3,18 40.5,19.4 L40.5,19.1 C40.5,17.8 39.5,16.8 38.3,16.8 Z" id="Combined-Shape" fill="#FFFFFF"></path>
                    <path d="M21,22.7 L21,14.4 L18.7,14.4 L18.7,12.5 L25.5,12.5 L25.5,14.4 L23.2,14.4 L23.2,22.7 L21,22.7 L21,22.7 Z" id="T" fill="#FFFFFF"></path>
                    <path d="M26.4,22.7 L26.4,15.3 L28.3,15.3 L28.3,22.7 L26.4,22.7 L26.4,22.7 Z" id="i" fill="#FFFFFF"></path>
                    <path d="M26.4,14.3 L26.4,12.5 L28.3,12.5 L28.3,14.3 L26.4,14.3 L26.4,14.3 Z" id="i-dot" fill="#D8D8D8"></path>
                    <path d="M51.5,31.1 L51.5,44.3 C51.5,44.7 51.2,45 50.8,45 L33.1,45 C32.7,45 32.4,44.7 32.4,44.3 L32.4,31.1 C32.4,30.7 32.7,30.4 33.1,30.4 L50.8,30.4 C51.1,30.4 51.5,30.7 51.5,31.1 L51.5,31.1 Z" id="numbers-container" fill="#FFFFFF"></path>
                    <path d="M23.7,38.6 C23.7,38 24,37.5 24.5,37.3 L24.5,29.6 C24.5,29.2 24.8,28.9 25.2,28.9 C25.6,28.9 25.9,29.2 25.9,29.6 L25.9,37.3 C26.4,37.5 26.7,38 26.7,38.6 C26.7,39.2 26.4,39.7 25.9,39.9 L25.9,45.8 C25.9,46.2 25.6,46.5 25.2,46.5 C24.8,46.5 24.5,46.2 24.5,45.8 L24.5,39.9 C24.1,39.7 23.7,39.2 23.7,38.6 L23.7,38.6 Z" id="slider4" fill="#FFFFFF"></path>
                    <path d="M18.4,36.8 C18.4,36.2 18.7,35.7 19.2,35.5 L19.2,29.6 C19.2,29.2 19.5,28.9 19.9,28.9 C20.3,28.9 20.6,29.2 20.6,29.6 L20.6,35.5 C21.1,35.7 21.4,36.2 21.4,36.8 C21.4,37.4 21.1,37.9 20.6,38.1 L20.6,45.8 C20.6,46.2 20.3,46.5 19.9,46.5 C19.5,46.5 19.2,46.2 19.2,45.8 L19.2,38.1 C18.8,37.9 18.4,37.4 18.4,36.8 L18.4,36.8 Z" id="slider3" fill="#FFFFFF"></path>
                    <path d="M13.5,41.2 L13.5,29.6 C13.5,29.2 13.8,28.9 14.2,28.9 C14.6,28.9 14.9,29.2 14.9,29.6 L14.9,41.1 C15.4,41.3 15.7,41.8 15.7,42.4 C15.7,43 15.4,43.5 14.9,43.7 L14.9,45.8 C14.9,46.2 14.6,46.5 14.2,46.5 C13.8,46.5 13.5,46.2 13.5,45.8 L13.5,43.8 C13,43.6 12.7,43.1 12.7,42.5 C12.7,41.9 13.1,41.4 13.5,41.2 L13.5,41.2 Z" id="slider2" fill="#FFFFFF"></path>
                    <path d="M9.3,45.8 C9.3,46.2 9,46.5 8.6,46.5 C8.2,46.5 7.9,46.2 7.9,45.8 L7.9,36.2 C7.4,36 7.1,35.5 7.1,34.9 C7.1,34.3 7.4,33.8 7.9,33.6 L7.9,29.6 C7.9,29.2 8.2,28.9 8.6,28.9 C9,28.9 9.3,29.2 9.3,29.6 L9.3,33.6 C9.8,33.8 10.1,34.3 10.1,34.9 C10.1,35.5 9.8,36 9.3,36.2 L9.3,45.8 L9.3,45.8 Z" id="slider1" fill="#FFFFFF"></path>
                    <path d="M48.5,61.1 L13.3,61.1 L9.5,53.6 L52.3,53.6 L48.5,61.1 L48.5,61.1 Z" id="bottom-wedge" fill="#FFFFFF"></path>
                    <path d="M47,56.2 C46.4,56.2 45.9,56.7 45.9,57.3 C45.9,57.9 46.4,58.4 47,58.4 C47.6,58.4 48.1,57.9 48.1,57.3 C48.1,56.7 47.6,56.2 47,56.2 L47,56.2 Z" id="wedge-dot" fill="#000000"></path>
                    <path d="M18.0349121,56.6229248 L44.2018161,56.6229248 L44.2018161,58.1362794 L18.0435604,58.1362794 L18.0349121,56.6229248 Z" id="wedge-rectangle" fill="#000000"></path>
                    <path d="M21,3.1 L40.5,3.1 L43.3,4.4 L18.2,4.4 L21,3.1 L21,3.1 Z" id="top-wedge" fill="#FFFFFF"></path>
                    <g id="number-0" transform="translate(33.000000, 31.000000)" fill="#000000">
                        <path d="M4.4,4.4 C3.8,4.4 3.4,5.2 3.4,6.7 C3.4,8.3 3.8,9 4.4,9 L4.4,9 C5,9 5.4,8.2 5.4,6.7 C5.4,5.2 5.1,4.4 4.4,4.4 L4.4,4.4 Z" id="Shape"></path>
                        <path d="M7.6,0.5 L1.2,0.5 C0.7,0.5 0.4,0.9 0.4,1.3 L0.4,12.2 C0.4,12.7 0.8,13 1.2,13 L7.6,13 C8.1,13 8.4,12.6 8.4,12.2 L8.4,1.3 C8.5,0.9 8.1,0.5 7.6,0.5 L7.6,0.5 Z M4.4,10.3 L4.4,10.3 C2.6,10.3 1.8,8.7 1.8,6.8 C1.8,4.8 2.6,3.2 4.4,3.2 C6.2,3.2 6.9,4.8 6.9,6.7 C7,8.8 6.2,10.3 4.4,10.3 L4.4,10.3 Z" id="Shape"></path>
                    </g>
                    <path d="M49.6,31.5 L43.3,31.5 C42.8,31.5 42.5,31.9 42.5,32.3 L42.5,43.2 C42.5,43.7 42.9,44 43.3,44 L49.6,44 C50.1,44 50.4,43.6 50.4,43.2 L50.4,32.3 C50.4,31.9 50,31.5 49.6,31.5 L49.6,31.5 Z M48.8,41.2 L44,41.2 L44,40.2 L44.9,39.4 C46.4,38.1 47.1,37.3 47.1,36.5 C47.1,36 46.8,35.5 46,35.5 C45.4,35.5 44.9,35.8 44.6,36 L44.2,34.9 C44.7,34.5 45.5,34.2 46.4,34.2 C47.9,34.2 48.8,35.1 48.8,36.3 C48.8,37.4 48,38.3 47,39.2 L46.4,39.7 L46.4,39.7 L48.9,39.7 L48.8,41.2 L48.8,41.2 L48.8,41.2 Z" id="number-2" fill="#000000"></path>
                </g>
            </g>
        </g>
    </g>
</svg>