<?xml version="1.0" encoding="utf-8"?>
<!-- Generator: Adobe Illustrator 19.0.0, SVG Export Plug-In . SVG Version: 6.00 Build 0)  -->
<!DOCTYPE svg PUBLIC "-//W3C//DTD SVG 1.1//EN" "http://www.w3.org/Graphics/SVG/1.1/DTD/svg11.dtd">
<svg version="1.1" id="Layer_1" xmlns="http://www.w3.org/2000/svg" xmlns:xlink="http://www.w3.org/1999/xlink" x="0px" y="0px"
	 viewBox="-114.8 204.7 91.1 68.6" style="enable-background:new -114.8 204.7 91.1 68.6;" xml:space="preserve">
<style type="text/css">
	.st0{display:none;}
	.st1{display:inline;}
	.st2{fill:#FFFFFF;}
	.st3{fill:#111412;}
</style>
<g id="guides" class="st0">
	<g class="st1">
		<rect x="-188.3" y="163.5" class="st2" width="238.1" height="155.9"/>
		<path class="st3" d="M49.8,163.5h-1.4v0.5h1.4V163.5L49.8,163.5z M46.9,163.5h-1.4v0.5h1.4V163.5L46.9,163.5z M44.1,163.5h-1.4
			v0.5h1.4V163.5L44.1,163.5z M41.3,163.5h-1.4v0.5h1.4V163.5L41.3,163.5z M38.4,163.5H37v0.5h1.4V163.5L38.4,163.5z M35.6,163.5
			h-1.4v0.5h1.4V163.5L35.6,163.5z M32.8,163.5h-1.4v0.5h1.4V163.5L32.8,163.5z M29.9,163.5h-1.4v0.5h1.4V163.5L29.9,163.5z
			 M27.1,163.5h-1.4v0.5h1.4V163.5L27.1,163.5z M24.3,163.5h-1.4v0.5h1.4V163.5L24.3,163.5z M21.4,163.5H20v0.5h1.4V163.5
			L21.4,163.5z M18.6,163.5h-1.4v0.5h1.4V163.5L18.6,163.5z M15.8,163.5h-1.4v0.5h1.4V163.5L15.8,163.5z M12.9,163.5h-1.4v0.5h1.4
			V163.5L12.9,163.5z M10.1,163.5H8.7v0.5h1.4V163.5L10.1,163.5z M7.3,163.5H5.9v0.5h1.4V163.5L7.3,163.5z M4.4,163.5H3v0.5h1.4
			V163.5L4.4,163.5z M1.6,163.5H0.2v0.5h1.4V163.5L1.6,163.5z M-1.2,163.5h-1.4v0.5h1.4V163.5L-1.2,163.5z M-4.1,163.5h-1.4v0.5h1.4
			V163.5L-4.1,163.5z M-6.9,163.5h-1.4v0.5h1.4V163.5L-6.9,163.5z M-9.7,163.5h-1.4v0.5h1.4V163.5L-9.7,163.5z M-12.6,163.5H-14v0.5
			h1.4V163.5L-12.6,163.5z M-15.4,163.5h-1.4v0.5h1.4V163.5L-15.4,163.5z M-18.3,163.5h-1.4v0.5h1.4V163.5L-18.3,163.5z
			 M-21.1,163.5h-1.4v0.5h1.4V163.5L-21.1,163.5z M-23.9,163.5h-1.4v0.5h1.4V163.5L-23.9,163.5z M-26.8,163.5h-1.4v0.5h1.4V163.5
			L-26.8,163.5z M-29.6,163.5H-31v0.5h1.4V163.5L-29.6,163.5z M-32.4,163.5h-1.4v0.5h1.4V163.5L-32.4,163.5z M-35.3,163.5h-1.4v0.5
			h1.4V163.5L-35.3,163.5z M-38.1,163.5h-1.4v0.5h1.4V163.5L-38.1,163.5z M-40.9,163.5h-1.4v0.5h1.4V163.5L-40.9,163.5z
			 M-43.8,163.5h-1.4v0.5h1.4V163.5L-43.8,163.5z M-46.6,163.5H-48v0.5h1.4V163.5L-46.6,163.5z M-49.4,163.5h-1.4v0.5h1.4V163.5
			L-49.4,163.5z M-52.3,163.5h-1.4v0.5h1.4V163.5L-52.3,163.5z M-55.1,163.5h-1.4v0.5h1.4V163.5L-55.1,163.5z M-57.9,163.5h-1.4v0.5
			h1.4V163.5L-57.9,163.5z M-60.8,163.5h-1.4v0.5h1.4V163.5L-60.8,163.5z M-63.6,163.5H-65v0.5h1.4V163.5L-63.6,163.5z M-66.4,163.5
			h-1.4v0.5h1.4V163.5L-66.4,163.5z M-69.3,163.5h-1.4v0.5h1.4V163.5L-69.3,163.5z M-72.1,163.5h-1.4v0.5h1.4V163.5L-72.1,163.5z
			 M-74.9,163.5h-1.4v0.5h1.4V163.5L-74.9,163.5z M-77.8,163.5h-1.4v0.5h1.4V163.5L-77.8,163.5z M-80.6,163.5H-82v0.5h1.4V163.5
			L-80.6,163.5z M-83.4,163.5h-1.4v0.5h1.4V163.5L-83.4,163.5z M-86.3,163.5h-1.4v0.5h1.4V163.5L-86.3,163.5z M-89.1,163.5h-1.4v0.5
			h1.4V163.5L-89.1,163.5z M-92,163.5h-1.4v0.5h1.4V163.5L-92,163.5z M-94.8,163.5h-1.4v0.5h1.4V163.5L-94.8,163.5z M-97.6,163.5
			H-99v0.5h1.4V163.5L-97.6,163.5z M-100.5,163.5h-1.4v0.5h1.4V163.5L-100.5,163.5z M-103.3,163.5h-1.4v0.5h1.4V163.5L-103.3,163.5z
			 M-106.1,163.5h-1.4v0.5h1.4V163.5L-106.1,163.5z M-109,163.5h-1.4v0.5h1.4V163.5L-109,163.5z M-111.8,163.5h-1.4v0.5h1.4V163.5
			L-111.8,163.5z M-114.6,163.5h-1.4v0.5h1.4V163.5L-114.6,163.5z M-117.5,163.5h-1.4v0.5h1.4V163.5L-117.5,163.5z M-120.3,163.5
			h-1.4v0.5h1.4V163.5L-120.3,163.5z M-123.1,163.5h-1.4v0.5h1.4V163.5L-123.1,163.5z M-126,163.5h-1.4v0.5h1.4V163.5L-126,163.5z
			 M-128.8,163.5h-1.4v0.5h1.4V163.5L-128.8,163.5z M-131.6,163.5h-1.4v0.5h1.4V163.5L-131.6,163.5z M-134.5,163.5h-1.4v0.5h1.4
			V163.5L-134.5,163.5z M-137.3,163.5h-1.4v0.5h1.4V163.5L-137.3,163.5z M-140.1,163.5h-1.4v0.5h1.4V163.5L-140.1,163.5z
			 M-143,163.5h-1.4v0.5h1.4V163.5L-143,163.5z M-145.8,163.5h-1.4v0.5h1.4V163.5L-145.8,163.5z M-148.6,163.5h-1.4v0.5h1.4V163.5
			L-148.6,163.5z M-151.5,163.5h-1.4v0.5h1.4V163.5L-151.5,163.5z M-154.3,163.5h-1.4v0.5h1.4V163.5L-154.3,163.5z M-157.1,163.5
			h-1.4v0.5h1.4V163.5L-157.1,163.5z M-160,163.5h-1.4v0.5h1.4V163.5L-160,163.5z M-162.8,163.5h-1.4v0.5h1.4V163.5L-162.8,163.5z
			 M-165.7,163.5h-1.4v0.5h1.4V163.5L-165.7,163.5z M-168.5,163.5h-1.4v0.5h1.4V163.5L-168.5,163.5z M-171.3,163.5h-1.4v0.5h1.4
			V163.5L-171.3,163.5z M-174.2,163.5h-1.4v0.5h1.4V163.5L-174.2,163.5z M-177,163.5h-1.4v0.5h1.4V163.5L-177,163.5z M-179.8,163.5
			h-1.4v0.5h1.4V163.5L-179.8,163.5z M-182.7,163.5h-1.4v0.5h1.4V163.5L-182.7,163.5z M-185.5,163.5h-1.4v0.5h1.4V163.5
			L-185.5,163.5z M-188.3,163.5v1.4h0.5v-1.4H-188.3L-188.3,163.5z M-187.8,166.3h-0.5v1.4h0.5V166.3L-187.8,166.3z M-187.8,169.1
			h-0.5v1.4h0.5V169.1L-187.8,169.1z M-187.8,172h-0.5v1.4h0.5V172L-187.8,172z M-187.8,174.8h-0.5v1.4h0.5V174.8L-187.8,174.8z
			 M-187.8,177.6h-0.5v1.4h0.5V177.6L-187.8,177.6z M-187.8,180.5h-0.5v1.4h0.5V180.5L-187.8,180.5z M-187.8,183.3h-0.5v1.4h0.5
			V183.3L-187.8,183.3z M-187.8,186.1h-0.5v1.4h0.5V186.1L-187.8,186.1z M-187.8,189h-0.5v1.4h0.5V189L-187.8,189z M-187.8,191.8
			h-0.5v1.4h0.5V191.8L-187.8,191.8z M-187.8,194.6h-0.5v1.4h0.5V194.6L-187.8,194.6z M-187.8,197.5h-0.5v1.4h0.5V197.5
			L-187.8,197.5z M-187.8,200.3h-0.5v1.4h0.5V200.3L-187.8,200.3z M-187.8,203.2h-0.5v1.4h0.5V203.2L-187.8,203.2z M-187.8,206h-0.5
			v1.4h0.5V206L-187.8,206z M-187.8,208.8h-0.5v1.4h0.5V208.8L-187.8,208.8z M-187.8,211.7h-0.5v1.4h0.5V211.7L-187.8,211.7z
			 M-187.8,214.5h-0.5v1.4h0.5V214.5L-187.8,214.5z M-187.8,217.3h-0.5v1.4h0.5V217.3L-187.8,217.3z M-187.8,220.2h-0.5v1.4h0.5
			V220.2L-187.8,220.2z M-187.8,223h-0.5v1.4h0.5V223L-187.8,223z M-187.8,225.8h-0.5v1.4h0.5V225.8L-187.8,225.8z M-187.8,228.7
			h-0.5v1.4h0.5V228.7L-187.8,228.7z M-187.8,231.5h-0.5v1.4h0.5V231.5L-187.8,231.5z M-187.8,234.3h-0.5v1.4h0.5V234.3
			L-187.8,234.3z M-187.8,237.2h-0.5v1.4h0.5V237.2L-187.8,237.2z M-187.8,240h-0.5v1.4h0.5V240L-187.8,240z M-187.8,242.8h-0.5v1.4
			h0.5V242.8L-187.8,242.8z M-187.8,245.7h-0.5v1.4h0.5V245.7L-187.8,245.7z M-187.8,248.5h-0.5v1.4h0.5V248.5L-187.8,248.5z
			 M-187.8,251.3h-0.5v1.5h0.5V251.3L-187.8,251.3z M-187.8,254.2h-0.5v1.4h0.5V254.2L-187.8,254.2z M-187.8,257h-0.5v1.4h0.5V257
			L-187.8,257z M-187.8,259.8h-0.5v1.4h0.5V259.8L-187.8,259.8z M-187.8,262.7h-0.5v1.4h0.5V262.7L-187.8,262.7z M-187.8,265.5h-0.5
			v1.4h0.5V265.5L-187.8,265.5z M-187.8,268.3h-0.5v1.4h0.5V268.3L-187.8,268.3z M-187.8,271.2h-0.5v1.4h0.5V271.2L-187.8,271.2z
			 M-187.8,274h-0.5v1.4h0.5V274L-187.8,274z M-187.8,276.9h-0.5v1.4h0.5V276.9L-187.8,276.9z M-187.8,279.7h-0.5v1.4h0.5V279.7
			L-187.8,279.7z M-187.8,282.5h-0.5v1.4h0.5V282.5L-187.8,282.5z M-187.8,285.4h-0.5v1.4h0.5V285.4L-187.8,285.4z M-187.8,288.2
			h-0.5v1.4h0.5V288.2L-187.8,288.2z M-187.8,291h-0.5v1.4h0.5V291L-187.8,291z M-187.8,293.9h-0.5v1.4h0.5V293.9L-187.8,293.9z
			 M-187.8,296.7h-0.5v1.4h0.5V296.7L-187.8,296.7z M-187.8,299.5h-0.5v1.4h0.5V299.5L-187.8,299.5z M-187.8,302.4h-0.5v1.4h0.5
			V302.4L-187.8,302.4z M-187.8,305.2h-0.5v1.4h0.5V305.2L-187.8,305.2z M-187.8,308h-0.5v1.4h0.5V308L-187.8,308z M-187.8,310.9
			h-0.5v1.4h0.5V310.9L-187.8,310.9z M-187.8,313.7h-0.5v1.4h0.5V313.7L-187.8,313.7z M-187.8,316.5h-0.5v1.4h0.5V316.5
			L-187.8,316.5z M-186.9,318.9h-1.4v0.5l0,0v-0.5v0.5l0,0l0,0l0,0h0.5l0,0l0,0l0,0l0,0l0,0c0.4,0,0.9,0,0.9,0V318.9L-186.9,318.9z
			 M-188.3,319.4L-188.3,319.4L-188.3,319.4L-188.3,319.4c0,0,0.2,0,0.5,0l0,0H-188.3L-188.3,319.4z M-184.1,318.9h-1.4v0.5h1.4
			V318.9L-184.1,318.9z M-181.2,318.9h-1.4v0.5h1.4V318.9L-181.2,318.9z M-178.4,318.9h-1.4v0.5h1.4V318.9L-178.4,318.9z
			 M-175.6,318.9h-1.4v0.5h1.4V318.9L-175.6,318.9z M-172.7,318.9h-1.4v0.5h1.4V318.9L-172.7,318.9z M-169.9,318.9h-1.4v0.5h1.4
			V318.9L-169.9,318.9z M-167.1,318.9h-1.4v0.5h1.4V318.9L-167.1,318.9z M-164.2,318.9h-1.4v0.5h1.4V318.9L-164.2,318.9z
			 M-161.4,318.9h-1.4v0.5h1.4V318.9L-161.4,318.9z M-158.6,318.9h-1.4v0.5h1.4V318.9L-158.6,318.9z M-155.7,318.9h-1.4v0.5h1.4
			V318.9L-155.7,318.9z M-152.9,318.9h-1.4v0.5h1.4V318.9L-152.9,318.9z M-150.1,318.9h-1.4v0.5h1.4V318.9L-150.1,318.9z
			 M-147.2,318.9h-1.4v0.5h1.4V318.9L-147.2,318.9z M-144.4,318.9h-1.4v0.5h1.4V318.9L-144.4,318.9z M-141.6,318.9h-1.4v0.5h1.4
			V318.9L-141.6,318.9z M-138.7,318.9h-1.4v0.5h1.4V318.9L-138.7,318.9z M-135.9,318.9h-1.4v0.5h1.4V318.9L-135.9,318.9z
			 M-133.1,318.9h-1.4v0.5h1.4V318.9L-133.1,318.9z M-130.2,318.9h-1.4v0.5h1.4V318.9L-130.2,318.9z M-127.4,318.9h-1.4v0.5h1.4
			V318.9L-127.4,318.9z M-124.6,318.9h-1.4v0.5h1.4V318.9L-124.6,318.9z M-121.7,318.9h-1.4v0.5h1.4V318.9L-121.7,318.9z
			 M-118.9,318.9h-1.4v0.5h1.4V318.9L-118.9,318.9z M-116,318.9h-1.4v0.5h1.4V318.9L-116,318.9z M-113.2,318.9h-1.4v0.5h1.4V318.9
			L-113.2,318.9z M-110.4,318.9h-1.4v0.5h1.4V318.9L-110.4,318.9z M-107.5,318.9h-1.5v0.5h1.4L-107.5,318.9L-107.5,318.9z
			 M-104.7,318.9h-1.4v0.5h1.4V318.9L-104.7,318.9z M-101.9,318.9h-1.4v0.5h1.4V318.9L-101.9,318.9z M-99,318.9h-1.4v0.5h1.4V318.9
			L-99,318.9z M-96.2,318.9h-1.4v0.5h1.4V318.9L-96.2,318.9z M-93.4,318.9h-1.4v0.5h1.4V318.9L-93.4,318.9z M-90.5,318.9H-92v0.5
			h1.4L-90.5,318.9L-90.5,318.9z M-87.7,318.9h-1.4v0.5h1.4V318.9L-87.7,318.9z M-84.9,318.9h-1.4v0.5h1.4V318.9L-84.9,318.9z
			 M-82,318.9h-1.4v0.5h1.4V318.9L-82,318.9z M-79.2,318.9h-1.4v0.5h1.4V318.9L-79.2,318.9z M-76.4,318.9h-1.4v0.5h1.4V318.9
			L-76.4,318.9z M-73.5,318.9h-1.4v0.5h1.4V318.9L-73.5,318.9z M-70.7,318.9h-1.4v0.5h1.4V318.9L-70.7,318.9z M-67.9,318.9h-1.4v0.5
			h1.4V318.9L-67.9,318.9z M-65,318.9h-1.4v0.5h1.4V318.9L-65,318.9z M-62.2,318.9h-1.4v0.5h1.4V318.9L-62.2,318.9z M-59.4,318.9
			h-1.4v0.5h1.4V318.9L-59.4,318.9z M-56.5,318.9h-1.4v0.5h1.4V318.9L-56.5,318.9z M-53.7,318.9h-1.4v0.5h1.4V318.9L-53.7,318.9z
			 M-50.9,318.9h-1.4v0.5h1.4V318.9L-50.9,318.9z M-48,318.9h-1.4v0.5h1.4V318.9L-48,318.9z M-45.2,318.9h-1.4v0.5h1.4V318.9
			L-45.2,318.9z M-42.3,318.9h-1.4v0.5h1.4V318.9L-42.3,318.9z M-39.5,318.9h-1.4v0.5h1.4V318.9L-39.5,318.9z M-36.7,318.9h-1.4v0.5
			h1.4V318.9L-36.7,318.9z M-33.8,318.9h-1.4v0.5h1.4V318.9L-33.8,318.9z M-31,318.9h-1.4v0.5h1.4V318.9L-31,318.9z M-28.2,318.9
			h-1.4v0.5h1.4V318.9L-28.2,318.9z M-25.3,318.9h-1.4v0.5h1.4V318.9L-25.3,318.9z M-22.5,318.9h-1.4v0.5h1.4V318.9L-22.5,318.9z
			 M-19.7,318.9h-1.4v0.5h1.4V318.9L-19.7,318.9z M-16.8,318.9h-1.4v0.5h1.4V318.9L-16.8,318.9z M-14,318.9h-1.4v0.5h1.4V318.9
			L-14,318.9z M-11.2,318.9h-1.4v0.5h1.4V318.9L-11.2,318.9z M-8.3,318.9h-1.4v0.5h1.4V318.9L-8.3,318.9z M-5.5,318.9h-1.4v0.5h1.4
			V318.9L-5.5,318.9z M-2.7,318.9h-1.4v0.5h1.4V318.9L-2.7,318.9z M0.2,318.9h-1.4v0.5h1.4V318.9L0.2,318.9z M3,318.9H1.6v0.5H3
			V318.9L3,318.9z M5.8,318.9H4.4v0.5h1.4V318.9L5.8,318.9z M8.7,318.9H7.3v0.5h1.4V318.9L8.7,318.9z M11.5,318.9h-1.4v0.5h1.4
			V318.9L11.5,318.9z M14.3,318.9h-1.4v0.5h1.4V318.9L14.3,318.9z M17.2,318.9h-1.4v0.5h1.4V318.9L17.2,318.9z M20,318.9h-1.4v0.5
			H20V318.9L20,318.9z M22.8,318.9h-1.4v0.5h1.4V318.9L22.8,318.9z M25.7,318.9h-1.4v0.5h1.4V318.9L25.7,318.9z M28.5,318.9h-1.4
			v0.5h1.4V318.9L28.5,318.9z M31.4,318.9H30v0.5h1.4V318.9L31.4,318.9z M34.2,318.9h-1.4v0.5h1.4V318.9L34.2,318.9z M37,318.9h-1.4
			v0.5H37V318.9L37,318.9z M39.9,318.9h-1.4v0.5h1.4V318.9L39.9,318.9z M42.7,318.9h-1.4v0.5h1.4V318.9L42.7,318.9z M45.5,318.9
			h-1.4v0.5h1.4V318.9L45.5,318.9z M48.4,318.9H47v0.5h1.4V318.9L48.4,318.9z M49.8,318h-0.5v1.4h0.5l0,0h-0.5h0.5l0,0l0,0l0,0l0,0
			l0,0l0,0l0,0V318L49.8,318z M49.8,315.1h-0.5v1.4h0.5V315.1L49.8,315.1z M49.8,312.3h-0.5v1.4h0.5V312.3L49.8,312.3z M49.8,309.5
			h-0.5v1.4h0.5V309.5L49.8,309.5z M49.8,306.6h-0.5v1.4h0.5V306.6L49.8,306.6z M49.8,303.8h-0.5v1.4h0.5V303.8L49.8,303.8z
			 M49.8,301h-0.5v1.4h0.5V301L49.8,301z M49.8,298.1h-0.5v1.4h0.5V298.1L49.8,298.1z M49.8,295.3h-0.5v1.4h0.5V295.3L49.8,295.3z
			 M49.8,292.4h-0.5v1.4h0.5V292.4L49.8,292.4z M49.8,289.6h-0.5v1.4h0.5V289.6L49.8,289.6z M49.8,286.8h-0.5v1.4h0.5V286.8
			L49.8,286.8z M49.8,283.9h-0.5v1.4h0.5V283.9L49.8,283.9z M49.8,281.1h-0.5v1.4h0.5V281.1L49.8,281.1z M49.8,278.3h-0.5v1.4h0.5
			V278.3L49.8,278.3z M49.8,275.4h-0.5v1.4h0.5V275.4L49.8,275.4z M49.8,272.6h-0.5v1.4h0.5V272.6L49.8,272.6z M49.8,269.8h-0.5v1.4
			h0.5V269.8L49.8,269.8z M49.8,266.9h-0.5v1.4h0.5V266.9L49.8,266.9z M49.8,264.1h-0.5v1.4h0.5V264.1L49.8,264.1z M49.8,261.3h-0.5
			v1.4h0.5V261.3L49.8,261.3z M49.8,258.4h-0.5v1.4h0.5V258.4L49.8,258.4z M49.8,255.6h-0.5v1.4h0.5V255.6L49.8,255.6z M49.8,252.8
			h-0.5v1.4h0.5V252.8L49.8,252.8z M49.8,249.9h-0.5v1.4h0.5V249.9L49.8,249.9z M49.8,247.1h-0.5v1.4h0.5V247.1L49.8,247.1z
			 M49.8,244.3h-0.5v1.4h0.5V244.3L49.8,244.3z M49.8,241.4h-0.5v1.4h0.5V241.4L49.8,241.4z M49.8,238.6h-0.5v1.4h0.5V238.6
			L49.8,238.6z M49.8,235.8h-0.5v1.4h0.5V235.8L49.8,235.8z M49.8,232.9h-0.5v1.4h0.5V232.9L49.8,232.9z M49.8,230.1h-0.5v1.4h0.5
			V230.1L49.8,230.1z M49.8,227.2h-0.5v1.4h0.5V227.2L49.8,227.2z M49.8,224.4h-0.5v1.4h0.5V224.4L49.8,224.4z M49.8,221.6h-0.5v1.4
			h0.5V221.6L49.8,221.6z M49.8,218.7h-0.5v1.4h0.5V218.7L49.8,218.7z M49.8,215.9h-0.5v1.4h0.5V215.9L49.8,215.9z M49.8,213.1h-0.5
			v1.4h0.5V213.1L49.8,213.1z M49.8,210.2h-0.5v1.4h0.5V210.2L49.8,210.2z M49.8,207.4h-0.5v1.4h0.5V207.4L49.8,207.4z M49.8,204.6
			h-0.5v1.4h0.5V204.6L49.8,204.6z M49.8,201.7h-0.5v1.4h0.5V201.7L49.8,201.7z M49.8,198.9h-0.5v1.4h0.5V198.9L49.8,198.9z
			 M49.8,196.1h-0.5v1.4h0.5V196.1L49.8,196.1z M49.8,193.2h-0.5v1.4h0.5V193.2L49.8,193.2z M49.8,190.4h-0.5v1.4h0.5V190.4
			L49.8,190.4z M49.8,187.6h-0.5v1.4h0.5V187.6L49.8,187.6z M49.8,184.7h-0.5v1.4h0.5V184.7L49.8,184.7z M49.8,181.9h-0.5v1.4h0.5
			V181.9L49.8,181.9z M49.8,179.1h-0.5v1.4h0.5V179.1L49.8,179.1z M49.8,176.2h-0.5v1.4h0.5V176.2L49.8,176.2z M49.8,173.4h-0.5v1.4
			h0.5V173.4L49.8,173.4z M49.8,170.6h-0.5v1.4h0.5V170.6L49.8,170.6z M49.8,167.7h-0.5v1.4h0.5V167.7L49.8,167.7z M49.8,164.9h-0.5
			v1.4h0.5V164.9L49.8,164.9z"/>
	</g>
</g>
<g id="front">
	<g>
		<g>
			<path d="M-37.8,210.2c0.6,4.2,1.9,14.9,2.5,33.3c2.5,0,4.3,0,4.3,0s-0.5-10.2-3.2-32.9L-37.8,210.2z"/>
			<g>
				<path d="M-29.6,205l-9.8,1c-0.8,0-1.4,0.6-1.4,1.4s0.6,1.4,1.4,1.4l9.8,1V205z"/>
				<path d="M-27,204.7c-0.1,0-0.2,0-0.3,0l-1,0.1v5l1,0.1c0.1,0,0.2,0,0.3,0V204.7z"/>
				<path d="M-25.7,204.8v5.1c1.2-0.3,2-1.3,2-2.5C-23.6,206.1-24.5,205-25.7,204.8z"/>
			</g>
			<path d="M-39.8,228.3h2.2c0,0,1.1,12.7,1,16.5c-0.7,0-1.6,0-1.6,0S-38.9,234-39.8,228.3z"/>
		</g>
		<g>
			<path d="M-61.7,225.8c-1.2,0-2.2,1-2.2,2.2c0,1.2,1,2.2,2.1,2.2c0.5,0,1-0.3,1-1c0-0.7-0.6-0.9-0.9-0.9c-0.3,0-0.5,0.2-0.5,0.2
				V227c0.3-0.2,0.4-0.2,0.8-0.2c0.4,0,1.7,0.2,1.9,1.6c0-0.1,0-0.2,0-0.3C-59.5,226.8-60.5,225.8-61.7,225.8z"/>
			<rect x="-82" y="265.6" width="26.2" height="1.5"/>
			<path d="M-53,265.2c-0.6,0-1.1,0.5-1.1,1.1s0.5,1.1,1.1,1.1s1.1-0.5,1.1-1.1S-52.4,265.2-53,265.2z"/>
			<path d="M-43.2,214.8l-14.6-5.2h-22.9l-14.7,5.2c0,0-5.1,28.3-3.8,45.1c0.5,0.1,1.1,0.2,1.6,0.2c0.8,2,5.8,9.4,7.8,11.5
				c2.3,2.3,39.1,2.1,41.2,0c1.9-1.9,7-9.6,7.9-11.5c0.4-0.1,0.9-0.1,1.3-0.2C-38.1,242.4-43.2,214.8-43.2,214.8z M-48.5,240.1v13.2
				c0,0.4-0.3,0.7-0.7,0.7h-17.7c-0.4,0-0.7-0.3-0.7-0.7v-13.2c0-0.4,0.3-0.7,0.7-0.7h17.7C-48.9,239.4-48.5,239.7-48.5,240.1z
				 M-70.7,225.9v-1.6h0.9v-2.7h1.8v2.7h1.4v1.6H-68v3.5c0,0.8,1.3,0.7,1.3,0.7v1.6c-3.1,0.1-3.1-1.5-3.1-1.6s0-0.7,0-0.7v-3.5
				H-70.7z M-65.8,228c0-2.2,1.8-3.9,3.9-3.9s3.9,1.8,3.9,3.9c0,2.2-1.8,3.9-3.9,3.9S-65.8,230.2-65.8,228z M-79,212.1h19.5l2.8,1.3
				h-25.1L-79,212.1z M-76.3,247.6c0-0.6,0.3-1.1,0.8-1.3v-7.7c0-0.4,0.3-0.7,0.7-0.7c0.4,0,0.7,0.3,0.7,0.7v7.7
				c0.5,0.2,0.8,0.7,0.8,1.3s-0.3,1.1-0.8,1.3v5.9c0,0.4-0.3,0.7-0.7,0.7c-0.4,0-0.7-0.3-0.7-0.7v-5.9
				C-75.9,248.7-76.3,248.2-76.3,247.6z M-81.6,245.8c0-0.6,0.3-1.1,0.8-1.3v-5.9c0-0.4,0.3-0.7,0.7-0.7c0.4,0,0.7,0.3,0.7,0.7v5.9
				c0.5,0.2,0.8,0.7,0.8,1.3c0,0.6-0.3,1.1-0.8,1.3v7.7c0,0.4-0.3,0.7-0.7,0.7c-0.4,0-0.7-0.3-0.7-0.7v-7.7
				C-81.2,246.9-81.6,246.4-81.6,245.8z M-79,231.7v-8.3h-2.3v-1.9h6.8v1.9h-2.3v8.3H-79z M-73.6,231.7v-7.4h1.9v7.4H-73.6z
				 M-73.6,223.3v-1.8h1.9v1.8H-73.6z M-86.5,250.2v-11.6c0-0.4,0.3-0.7,0.7-0.7c0.4,0,0.7,0.3,0.7,0.7v11.5
				c0.5,0.2,0.8,0.7,0.8,1.3c0,0.6-0.3,1.1-0.8,1.3v2.1c0,0.4-0.3,0.7-0.7,0.7c-0.4,0-0.7-0.3-0.7-0.7v-2c-0.5-0.2-0.8-0.7-0.8-1.3
				C-87.3,250.9-86.9,250.4-86.5,250.2z M-90.7,254.8c0,0.4-0.3,0.7-0.7,0.7c-0.4,0-0.7-0.3-0.7-0.7v-9.6c-0.5-0.2-0.8-0.7-0.8-1.3
				c0-0.6,0.3-1.1,0.8-1.3v-4c0-0.4,0.3-0.7,0.7-0.7c0.4,0,0.7,0.3,0.7,0.7v4c0.5,0.2,0.8,0.7,0.8,1.3c0,0.6-0.3,1.1-0.8,1.3V254.8z
				 M-51.5,270.1h-35.2l-3.8-7.5h42.8L-51.5,270.1z"/>
			<g>
				<path d="M-62.6,244.4c-0.6,0-1,0.8-1,2.3c0,1.6,0.4,2.3,1,2.3l0,0c0.6,0,1-0.8,1-2.3S-61.9,244.4-62.6,244.4z"/>
				<path d="M-59.4,240.5h-6.4c-0.5,0-0.8,0.4-0.8,0.8v10.9c0,0.5,0.4,0.8,0.8,0.8h6.4c0.5,0,0.8-0.4,0.8-0.8v-10.9
					C-58.5,240.9-58.9,240.5-59.4,240.5z M-62.6,250.3L-62.6,250.3c-1.8,0-2.6-1.6-2.6-3.5c0-2,0.8-3.6,2.6-3.6s2.5,1.6,2.5,3.5
					C-60,248.8-60.8,250.3-62.6,250.3z"/>
			</g>
			<path d="M-50.4,240.5h-6.3c-0.5,0-0.8,0.4-0.8,0.8v10.9c0,0.5,0.4,0.8,0.8,0.8h6.3c0.5,0,0.8-0.4,0.8-0.8v-10.9
				C-49.6,240.9-50,240.5-50.4,240.5z M-51.2,250.2H-56v-1l0.9-0.8c1.5-1.3,2.2-2.1,2.2-2.9c0-0.5-0.3-1-1.1-1
				c-0.6,0-1.1,0.3-1.4,0.5l-0.4-1.1c0.5-0.4,1.3-0.7,2.2-0.7c1.5,0,2.4,0.9,2.4,2.1c0,1.1-0.8,2-1.8,2.9l-0.6,0.5l0,0h2.5
				L-51.2,250.2L-51.2,250.2z"/>
		</g>
	</g>
</g>
<g id="back" class="st0">
	<g class="st1">
		<path d="M-94.6,232.5v3.3h2.8v2.2h-2.8v5.2c0,1.4,0.4,2.2,1.5,2.2c0.5,0,0.9-0.1,1.2-0.1v2.3c-0.4,0.2-1.2,0.3-2.1,0.3
			c-1.1,0-2-0.4-2.5-1c-0.6-0.7-0.9-1.7-0.9-3.3v-5.5h-1.7v-2.2h1.7v-2.6L-94.6,232.5z"/>
		<path d="M-86.4,232.6c0,0.9-0.6,1.6-1.7,1.6c-1,0-1.6-0.7-1.6-1.6c0-0.9,0.7-1.6,1.7-1.6C-87.1,231-86.4,231.7-86.4,232.6z
			 M-89.6,247.6v-11.7h3v11.7C-86.6,247.6-89.6,247.6-89.6,247.6z"/>
		<path d="M-80,232.5v3.3h2.8v2.2H-80v5.2c0,1.4,0.4,2.2,1.5,2.2c0.5,0,0.9-0.1,1.2-0.1v2.3c-0.4,0.2-1.2,0.3-2.1,0.3
			c-1.1,0-2-0.4-2.5-1c-0.6-0.7-0.9-1.7-0.9-3.3v-5.5h-1.7v-2.2h1.7v-2.6L-80,232.5z"/>
		<path d="M-64,241.6c0,4.3-3,6.2-6,6.2c-3.3,0-5.9-2.3-5.9-6c0-3.8,2.5-6.2,6-6.2C-66.3,235.6-64,238.1-64,241.6z M-72.8,241.7
			c0,2.3,1.1,4,2.9,4c1.7,0,2.9-1.7,2.9-4c0-1.8-0.8-3.9-2.8-3.9C-72,237.8-72.8,239.8-72.8,241.7z"/>
		<path d="M-62.7,245.9c0-1.1,0.8-1.9,1.8-1.9c1.1,0,1.8,0.8,1.8,1.9s-0.7,1.9-1.8,1.9C-61.9,247.8-62.7,247-62.7,245.9z"/>
		<path d="M-53.5,232.6c0,0.9-0.6,1.6-1.7,1.6c-1,0-1.6-0.7-1.6-1.6c0-0.9,0.7-1.6,1.7-1.6C-54.2,231-53.5,231.7-53.5,232.6z
			 M-56.7,247.6v-11.7h3v11.7C-53.7,247.6-56.7,247.6-56.7,247.6z"/>
		<path d="M-39.4,241.6c0,4.3-3,6.2-6,6.2c-3.3,0-5.9-2.3-5.9-6c0-3.8,2.5-6.2,6-6.2C-41.7,235.6-39.4,238.1-39.4,241.6z
			 M-48.2,241.7c0,2.3,1.1,4,2.9,4c1.7,0,2.9-1.7,2.9-4c0-1.8-0.8-3.9-2.8-3.9C-47.4,237.8-48.2,239.8-48.2,241.7z"/>
	</g>
</g>
</svg>
