<?xml version="1.0" encoding="UTF-8" standalone="no"?>
<svg width="24px" height="11px" viewBox="0 0 24 11" version="1.1" xmlns="http://www.w3.org/2000/svg" xmlns:xlink="http://www.w3.org/1999/xlink">
    <!-- Generator: Sketch 3.6.1 (26313) - http://www.bohemiancoding.com/sketch -->
    <title>tito</title>
    <desc>Created with Sketch.</desc>
    <defs></defs>
    <g id="Page-1" stroke="none" stroke-width="1" fill="none" fill-rule="evenodd">
        <g id="Wordmark" transform="translate(-23.000000, -9.000000)">
            <g id="tito" transform="translate(23.000000, 9.000000)">
                <path d="M10.6,4.4 L10.6,2.8 L11.5,2.8 L11.5,0.1 L13.3,0.1 L13.3,2.8 L14.7,2.8 L14.7,4.4 L13.3,4.4 L13.3,7.9 C13.3,8.7 14.6,8.6 14.6,8.6 L14.6,10.2 C11.5,10.3 11.5,8.7 11.5,8.6 L11.5,7.9 L11.5,4.4 L10.6,4.4 L10.6,4.4 Z" id="small-t" fill="#FFFFFF"></path>
                <path d="M15.5,6.5 C15.5,4.3 17.3,2.6 19.4,2.6 C21.5,2.6 23.3,4.4 23.3,6.5 C23.3,8.7 21.5,10.4 19.4,10.4 C17.3,10.4 15.5,8.7 15.5,6.5 L15.5,6.5 Z" id="o" fill="#FFFFFF"></path>
                <path d="M2.3,10.2 L2.3,1.9 L0,1.9 L0,0 L6.8,0 L6.8,1.9 L4.5,1.9 L4.5,10.2 L2.3,10.2 L2.3,10.2 Z" id="T" fill="#FFFFFF"></path>
                <path d="M7.7,10.2 L7.7,2.8 L9.6,2.8 L9.6,10.2 L7.7,10.2 L7.7,10.2 Z" id="i" fill="#FFFFFF"></path>
                <path d="M19.6,4.3 C18.4,4.3 17.4,5.3 17.4,6.5 C17.4,7.7 18.4,8.7 19.5,8.7 C20,8.7 20.5,8.4 20.5,7.7 C20.5,7 19.9,6.8 19.6,6.8 C19.3,6.8 19.1,7 19.1,7 L19.1,5.5 C19.4,5.3 19.5,5.3 19.9,5.3 C20.3,5.3 21.6,5.5 21.8,6.9 L21.8,6.6 C21.8,5.3 20.8,4.3 19.6,4.3 L19.6,4.3 Z" id="tito-curl" fill="#000000"></path>
                <path d="M7.7,1.8 L7.7,0 L9.6,0 L9.6,1.8 L7.7,1.8 L7.7,1.8 Z" id="i-dot" fill="#FFFFFF"></path>
            </g>
        </g>
    </g>
</svg>